<svg version="1.1" xmlns="http://www.w3.org/2000/svg" viewBox="0 0 1269.2000427246094 500.80003356933594" width="1269.2000427246094" height="500.80003356933594">
  <!-- svg-source:excalidraw -->
  
  <defs>
    <style class="style-fonts">
      @font-face {
        font-family: "Virgil";
        src: url("https://excalidraw.com/Virgil.woff2");
      }
      @font-face {
        font-family: "Cascadia";
        src: url("https://excalidraw.com/Cascadia.woff2");
      }
    </style>
    
  </defs>
  <rect x="0" y="0" width="1269.2000427246094" height="500.80003356933594" fill="#ffffff"></rect><g stroke-linecap="round" transform="translate(10 170.40000915527344) rotate(0 174 52.5)"><path d="M3.9 10.01 C3.9 10.01, 3.9 10.01, 3.9 10.01 M3.9 10.01 C3.9 10.01, 3.9 10.01, 3.9 10.01 M0.36 20.19 C4.67 14.71, 9.45 10.91, 15.45 2.83 M0.36 20.19 C4.66 14.16, 8.9 10.39, 15.45 2.83 M0.1 26.58 C6.2 21.33, 11.29 11.53, 22.4 0.92 M0.1 26.58 C8.55 16.96, 17.1 5.86, 22.4 0.92 M0.49 32.23 C13.12 18.56, 21.88 7.79, 28.05 0.53 M0.49 32.23 C10.69 21.16, 19.93 8.16, 28.05 0.53 M0.23 38.62 C12.76 24.09, 24.91 9.69, 33.69 0.13 M0.23 38.62 C6.99 28.6, 16.47 19.08, 33.69 0.13 M0.62 44.27 C9.16 32.65, 18.39 22.37, 38.68 0.49 M0.62 44.27 C12.78 31.19, 23.25 17.06, 38.68 0.49 M0.36 50.67 C13.48 37.92, 25.98 21.16, 44.32 0.1 M0.36 50.67 C11.04 38.43, 21.7 25.61, 44.32 0.1 M0.1 57.06 C15.77 38.24, 35.2 19.32, 49.31 0.46 M0.1 57.06 C14.59 39.9, 28.29 24.62, 49.31 0.46 M0.5 62.71 C13.74 45.93, 29.04 33.44, 54.29 0.82 M0.5 62.71 C13.65 47.63, 27.1 34.57, 54.29 0.82 M0.23 69.1 C21.7 46.97, 41.03 23.33, 59.94 0.43 M0.23 69.1 C13.54 53.3, 27.92 36.54, 59.94 0.43 M0.63 74.75 C15.94 59.38, 28.76 44.98, 64.92 0.79 M0.63 74.75 C19.81 51.86, 38.76 30.07, 64.92 0.79 M0.37 81.15 C18 61.63, 36.66 42.4, 70.57 0.39 M0.37 81.15 C24.29 51.38, 50.32 23.73, 70.57 0.39 M1.42 86.03 C20.57 65.73, 39.87 43, 75.55 0.75 M1.42 86.03 C19.73 66.1, 37.81 44.47, 75.55 0.75 M2.47 90.92 C28.53 58.59, 56.74 26.53, 81.2 0.36 M2.47 90.92 C31.28 57.72, 59.49 25.42, 81.2 0.36 M4.18 95.06 C26.86 68.2, 50.35 41.94, 86.18 0.72 M4.18 95.06 C22.48 75.67, 38.67 55.22, 86.18 0.72 M6.54 98.43 C32.07 69.36, 55.04 43.19, 91.83 0.32 M6.54 98.43 C30.34 71.47, 54.07 44.63, 91.83 0.32 M10.21 100.3 C45.72 63.08, 77.2 26.02, 96.81 0.68 M10.21 100.3 C28.18 80, 46.73 58.63, 96.81 0.68 M13.23 102.93 C39.98 72.83, 62.3 44.22, 102.46 0.29 M13.23 102.93 C35.11 79.85, 55.64 55.61, 102.46 0.29 M17.56 104.04 C39.24 80.92, 58.47 56.97, 107.44 0.65 M17.56 104.04 C51.3 65.8, 84.09 26.33, 107.44 0.65 M22.55 104.4 C55.24 66.37, 90.33 28.63, 113.09 0.25 M22.55 104.4 C46.3 76.06, 70.68 47.65, 113.09 0.25 M26.88 105.52 C56.36 71.14, 84.17 39.88, 118.07 0.61 M26.88 105.52 C59.97 68.27, 91.24 32.55, 118.07 0.61 M31.87 105.88 C66.75 68.48, 98.27 29.97, 123.72 0.22 M31.87 105.88 C59.77 71.63, 88.5 38.03, 123.72 0.22 M37.51 105.48 C62.79 73.93, 90.11 44.23, 128.7 0.58 M37.51 105.48 C63.85 76.06, 89.29 47.09, 128.7 0.58 M42.5 105.84 C68.38 75.55, 98.24 41.26, 134.35 0.18 M42.5 105.84 C63.24 81.33, 84.18 56.81, 134.35 0.18 M48.14 105.45 C70.19 80.03, 93.48 57.32, 139.33 0.54 M48.14 105.45 C66.56 83.7, 85.76 62.3, 139.33 0.54 M53.13 105.81 C87.32 68.68, 118.63 30.41, 144.98 0.15 M53.13 105.81 C86.98 68.76, 118.64 30.5, 144.98 0.15 M58.77 105.41 C93.74 64.42, 132.33 22.76, 149.96 0.51 M58.77 105.41 C84.21 75.37, 111.88 43.59, 149.96 0.51 M63.76 105.77 C97.63 66.89, 132.93 26.75, 155.61 0.12 M63.76 105.77 C96.49 67.48, 129.97 29.27, 155.61 0.12 M69.4 105.38 C88.28 82.61, 110.84 61.22, 160.59 0.48 M69.4 105.38 C88.01 83.13, 106.94 62.05, 160.59 0.48 M74.39 105.74 C105.63 73.21, 136.44 39.37, 165.58 0.84 M74.39 105.74 C95.51 82.95, 114.45 61, 165.58 0.84 M80.03 105.35 C110.53 68.44, 143.93 30.53, 171.22 0.44 M80.03 105.35 C107.27 72.86, 134.73 40.51, 171.22 0.44 M85.02 105.71 C105.12 82.14, 124.11 60.68, 176.21 0.8 M85.02 105.71 C120.24 64.68, 155.67 23.78, 176.21 0.8 M90.66 105.31 C112.41 81.12, 135.73 52.39, 181.85 0.41 M90.66 105.31 C116.34 75.33, 140.84 47.45, 181.85 0.41 M95.65 105.67 C113.7 82.81, 135.62 58.22, 186.84 0.77 M95.65 105.67 C118.66 79.69, 140.51 52.75, 186.84 0.77 M101.29 105.28 C131.39 74.49, 158.53 38.87, 192.48 0.37 M101.29 105.28 C129.63 74.12, 157.05 43.07, 192.48 0.37 M106.28 105.64 C133.75 71.44, 164.85 40.01, 197.47 0.73 M106.28 105.64 C131.84 74.93, 160.08 44.69, 197.47 0.73 M111.92 105.24 C146.64 64.78, 183.05 24.07, 203.11 0.34 M111.92 105.24 C136.58 77.69, 159.42 51.27, 203.11 0.34 M116.91 105.6 C145.64 74.17, 168.85 41.62, 208.1 0.7 M116.91 105.6 C145.62 72.21, 174.99 38.01, 208.1 0.7 M122.55 105.21 C150 74.3, 180.08 40.8, 213.74 0.3 M122.55 105.21 C154.85 68.34, 188.14 31.63, 213.74 0.3 M127.54 105.57 C152.75 73.26, 183.61 41.42, 218.73 0.66 M127.54 105.57 C145.21 85.43, 164.91 64.03, 218.73 0.66 M133.18 105.17 C156.08 78.15, 179.15 53.37, 224.37 0.27 M133.18 105.17 C158.89 76.21, 185.15 45.4, 224.37 0.27 M138.17 105.53 C162.76 75.05, 190.63 43.49, 229.36 0.63 M138.17 105.53 C172.5 66.52, 206.34 27.03, 229.36 0.63 M143.16 105.89 C167.55 79.74, 187.13 51.82, 235 0.23 M143.16 105.89 C166.9 78.84, 190.5 49.91, 235 0.23 M148.8 105.5 C171.99 78.12, 195.43 52.82, 239.99 0.59 M148.8 105.5 C179.47 72.22, 208.4 37.84, 239.99 0.59 M153.79 105.86 C180.8 73.01, 207.61 41.91, 245.63 0.2 M153.79 105.86 C190.14 65.74, 224.31 24.79, 245.63 0.2 M159.43 105.46 C189.16 73.01, 213.63 42.05, 250.62 0.56 M159.43 105.46 C184.63 77.41, 209.1 49.36, 250.62 0.56 M164.42 105.82 C199.35 66.52, 235.23 24.2, 256.26 0.16 M164.42 105.82 C190.9 76.35, 216.9 45.18, 256.26 0.16 M170.06 105.43 C203.46 67.47, 238.51 26.64, 261.25 0.52 M170.06 105.43 C202.01 69.3, 233.47 32.63, 261.25 0.52 M175.05 105.79 C203.17 73.7, 229.91 42.03, 266.89 0.13 M175.05 105.79 C202.85 77.04, 228.66 44.72, 266.89 0.13 M180.69 105.4 C204.39 79.17, 224.84 53.62, 271.88 0.49 M180.69 105.4 C214.79 65.46, 248.85 25.88, 271.88 0.49 M185.68 105.76 C207.73 80.78, 231.3 53.98, 277.52 0.1 M185.68 105.76 C206.4 82.43, 227.37 57.5, 277.52 0.1 M191.32 105.36 C208.43 83.1, 228.52 61.04, 282.51 0.46 M191.32 105.36 C217.82 74.22, 246 44.94, 282.51 0.46 M196.31 105.72 C230.58 68.38, 264.25 29.95, 287.5 0.82 M196.31 105.72 C217.97 82.39, 238.76 58.66, 287.5 0.82 M201.95 105.33 C238.61 65.95, 273.2 24.3, 293.14 0.42 M201.95 105.33 C233.98 70.08, 265.58 33.71, 293.14 0.42 M206.94 105.69 C229.28 78.33, 250.8 52.18, 298.13 0.78 M206.94 105.69 C239.49 69.02, 271.9 33.04, 298.13 0.78 M212.58 105.29 C243.54 73.98, 272.82 37.96, 303.77 0.39 M212.58 105.29 C236.94 77.22, 262.05 49.54, 303.77 0.39 M217.57 105.65 C238.78 77.99, 262.27 49.68, 308.76 0.75 M217.57 105.65 C247.97 71.1, 277.69 35.44, 308.76 0.75 M223.21 105.26 C249.18 72.26, 275.05 44.14, 314.4 0.35 M223.21 105.26 C252.64 70.83, 282.29 35.7, 314.4 0.35 M228.2 105.62 C257.92 68.39, 289.02 35.56, 319.39 0.71 M228.2 105.62 C252.54 79.55, 275.26 54.52, 319.39 0.71 M233.84 105.22 C251.64 80.26, 272.51 58.12, 324.38 1.07 M233.84 105.22 C259.99 75.66, 284.95 47.02, 324.38 1.07 M238.83 105.58 C261.7 77.02, 282.6 51.2, 329.36 1.43 M238.83 105.58 C261.49 80.08, 284.42 54.75, 329.36 1.43 M244.47 105.19 C265.81 82.98, 282.47 64.19, 333.69 2.55 M244.47 105.19 C279.68 66.03, 312.59 26.81, 333.69 2.55 M249.46 105.55 C278.14 70.69, 309.48 39.31, 338.02 3.66 M249.46 105.55 C268.74 84.99, 285.94 65.87, 338.02 3.66 M254.44 105.91 C285.48 72.13, 315.71 38.94, 341.04 6.29 M254.44 105.91 C273.65 84.29, 292.66 60.17, 341.04 6.29 M260.09 105.51 C286.93 74.47, 316.43 40.53, 343.41 9.67 M260.09 105.51 C283 76.32, 308.16 48.56, 343.41 9.67 M265.07 105.87 C289.8 77.42, 312.56 50.14, 345.77 13.04 M265.07 105.87 C287.73 80.42, 310.59 55.71, 345.77 13.04 M270.72 105.48 C297.29 71.2, 328.12 39.44, 347.48 17.18 M270.72 105.48 C299.08 70.59, 329.69 37.68, 347.48 17.18 M275.7 105.84 C303.41 77.39, 326.98 46.43, 348.53 22.07 M275.7 105.84 C299.07 79.44, 322.14 51.2, 348.53 22.07 M281.35 105.44 C309.96 73.29, 333.81 43.98, 348.26 28.46 M281.35 105.44 C300.86 81.8, 321.32 59.2, 348.26 28.46 M286.33 105.8 C300.01 88.86, 314.4 77.43, 348.66 34.11 M286.33 105.8 C301.16 86.88, 317.43 69.14, 348.66 34.11 M291.98 105.41 C306.38 87.93, 323.58 68.11, 348.4 40.51 M291.98 105.41 C307.47 85.01, 324.37 67.01, 348.4 40.51 M296.96 105.77 C313.85 87.31, 326.4 71.54, 348.79 46.15 M296.96 105.77 C311 89.9, 325.75 72.68, 348.79 46.15 M302.61 105.38 C319.55 83.88, 340.01 63.3, 348.53 52.55 M302.61 105.38 C311.89 95.35, 322.61 83.71, 348.53 52.55 M307.59 105.74 C318.67 91.23, 332.34 77.87, 348.93 58.19 M307.59 105.74 C319.29 91.73, 330.95 79.42, 348.93 58.19 M313.24 105.34 C320.48 96.68, 329.68 88.08, 348.66 64.59 M313.24 105.34 C323.8 92.8, 334.6 80.81, 348.66 64.59 M318.22 105.7 C325.3 97.95, 332.93 86.23, 348.4 70.98 M318.22 105.7 C327.38 96.64, 334.64 85.81, 348.4 70.98 M323.87 105.31 C331.07 96.98, 335.6 91.77, 348.8 76.63 M323.87 105.31 C330.41 98.38, 336.2 91.6, 348.8 76.63 M330.82 103.4 C336.13 100.72, 337.85 93.3, 347.22 84.53 M330.82 103.4 C334.39 98.98, 337.81 95.11, 347.22 84.53 M337.78 101.5 C342.18 98.71, 343.07 95.23, 346.96 90.93 M337.78 101.5 C340.23 97.82, 343.3 95.21, 346.96 90.93" stroke="#fab005" stroke-width="0.5" fill="none"></path><path d="M26.25 0 C123.25 -0.33, 222.9 -0.16, 321.75 0 M26.25 0 C127.14 0.29, 226 0.05, 321.75 0 M321.75 0 C338.62 -0.13, 348.91 9.29, 348 26.25 M321.75 0 C341.06 0.66, 345.7 9.16, 348 26.25 M348 26.25 C347.61 42.93, 346.64 60.39, 348 78.75 M348 26.25 C348.93 45.59, 348.66 65.54, 348 78.75 M348 78.75 C348 97.55, 338.69 104.6, 321.75 105 M348 78.75 C347.31 95.16, 338.64 104.38, 321.75 105 M321.75 105 C255.82 108.37, 193.36 107.99, 26.25 105 M321.75 105 C239.53 103.4, 158.07 103.49, 26.25 105 M26.25 105 C7.87 106.65, 0.87 94.98, 0 78.75 M26.25 105 C10.88 104.49, -1.88 98.07, 0 78.75 M0 78.75 C0.8 65.86, -0.11 50.17, 0 26.25 M0 78.75 C-1.39 63.38, 0 45.66, 0 26.25 M0 26.25 C-1.38 9.8, 10.62 -1.35, 26.25 0 M0 26.25 C-0.43 8.92, 7.22 -1.25, 26.25 0" stroke="#000000" stroke-width="1" fill="none"></path></g><g transform="translate(44.26605224609375 189.30000915527341) rotate(0 139.73394775390625 33.599999999999994)"><text x="139.73394775390625" y="0" font-family="Virgil, Segoe UI Emoji" font-size="28px" fill="#000000" text-anchor="middle" style="white-space: pre;" direction="ltr" dominant-baseline="text-before-edge">HANA Cloud Service </text><text x="139.73394775390625" y="33.6" font-family="Virgil, Segoe UI Emoji" font-size="28px" fill="#000000" text-anchor="middle" style="white-space: pre;" direction="ltr" dominant-baseline="text-before-edge">Instance</text></g><g stroke-linecap="round" transform="translate(532.6001281738281 169.80004119873047) rotate(0 177.5 52.5)"><path d="M3.9 10.01 C3.9 10.01, 3.9 10.01, 3.9 10.01 M3.9 10.01 C3.9 10.01, 3.9 10.01, 3.9 10.01 M0.36 20.19 C2.46 14.76, 5.69 12.18, 15.45 2.83 M0.36 20.19 C3.55 16.65, 5.64 13.94, 15.45 2.83 M0.1 26.58 C5.79 19.2, 13.67 9.02, 22.4 0.92 M0.1 26.58 C6.98 17.04, 15.63 9.6, 22.4 0.92 M0.49 32.23 C8.95 20.83, 19.41 11.62, 28.05 0.53 M0.49 32.23 C7.01 24.21, 14.34 16.38, 28.05 0.53 M0.23 38.62 C12.43 26.42, 22.68 10.92, 33.69 0.13 M0.23 38.62 C7.11 30.55, 14.21 21.84, 33.69 0.13 M0.62 44.27 C12.88 30, 26.82 14.32, 38.68 0.49 M0.62 44.27 C15.84 27.63, 30.11 9.35, 38.68 0.49 M0.36 50.67 C14.85 36.86, 25.65 22.1, 44.32 0.1 M0.36 50.67 C11.41 37.81, 22.86 24.49, 44.32 0.1 M0.1 57.06 C13.67 37.98, 31.88 22.86, 49.31 0.46 M0.1 57.06 C18.93 35.74, 38.59 14.6, 49.31 0.46 M0.5 62.71 C15.67 44.27, 30.08 25.91, 54.29 0.82 M0.5 62.71 C18.66 41.98, 33.89 24.05, 54.29 0.82 M0.23 69.1 C17.82 45.22, 37.93 23.05, 59.94 0.43 M0.23 69.1 C17.63 49.47, 34.8 30.05, 59.94 0.43 M0.63 74.75 C13.26 60.11, 26.28 45.68, 64.92 0.79 M0.63 74.75 C23.79 46.68, 47.36 19.59, 64.92 0.79 M0.37 81.15 C25.91 55.53, 46.73 28.86, 70.57 0.39 M0.37 81.15 C22.51 57.24, 44.26 32.15, 70.57 0.39 M1.42 86.03 C25.66 57.61, 52.38 26.77, 75.55 0.75 M1.42 86.03 C23.92 59.91, 46.66 34.77, 75.55 0.75 M2.47 90.92 C25.24 64.82, 46.85 42.82, 81.2 0.36 M2.47 90.92 C26.47 63.39, 49.65 37.02, 81.2 0.36 M4.18 95.06 C35.34 61.19, 67.06 23.59, 86.18 0.72 M4.18 95.06 C28.87 67.39, 52.92 38.78, 86.18 0.72 M6.54 98.43 C28.92 70.81, 52.12 47.59, 91.83 0.32 M6.54 98.43 C27.84 73.38, 50.63 47.5, 91.83 0.32 M10.21 100.3 C39.56 65, 72.21 28.17, 96.81 0.68 M10.21 100.3 C30.49 76.35, 51.4 53.18, 96.81 0.68 M13.23 102.93 C30.57 78.69, 53.32 55.14, 102.46 0.29 M13.23 102.93 C38.97 75.03, 64.27 46, 102.46 0.29 M17.56 104.04 C53.63 61.93, 86.72 23.85, 107.44 0.65 M17.56 104.04 C49.44 68.52, 78.47 33.81, 107.44 0.65 M22.55 104.4 C46.76 77.05, 72.64 45.87, 113.09 0.25 M22.55 104.4 C56.3 65.91, 88.42 27.08, 113.09 0.25 M26.88 105.52 C55.69 74.11, 81.37 41.1, 118.07 0.61 M26.88 105.52 C52.88 74.78, 80.8 44.48, 118.07 0.61 M31.87 105.88 C58.68 70.22, 91.2 36.33, 123.72 0.22 M31.87 105.88 C53.06 81.74, 73.13 58.06, 123.72 0.22 M37.51 105.48 C67.72 64.92, 102.86 30.07, 128.7 0.58 M37.51 105.48 C65.87 73.9, 92.18 40.89, 128.7 0.58 M42.5 105.84 C66.5 79.65, 90.98 50.61, 134.35 0.18 M42.5 105.84 C67.59 76.86, 92.77 48.12, 134.35 0.18 M48.14 105.45 C69.38 82.65, 88.65 60.99, 139.33 0.54 M48.14 105.45 C74.74 75.19, 103.55 43.3, 139.33 0.54 M53.13 105.81 C87.67 66.01, 124.27 25.4, 144.98 0.15 M53.13 105.81 C72.99 82.63, 93.95 57.44, 144.98 0.15 M58.77 105.41 C84.22 76.05, 111.97 45.88, 149.96 0.51 M58.77 105.41 C86.36 74.24, 113.65 43.64, 149.96 0.51 M63.76 105.77 C100.24 62.37, 135.95 22.27, 155.61 0.12 M63.76 105.77 C91.88 73.75, 118.84 40.54, 155.61 0.12 M69.4 105.38 C91.66 80.19, 112.42 51.66, 160.59 0.48 M69.4 105.38 C90.99 80.2, 112.01 55.24, 160.59 0.48 M74.39 105.74 C106.99 66.54, 139.49 30.24, 165.58 0.84 M74.39 105.74 C97.29 79.5, 120.46 54.92, 165.58 0.84 M80.03 105.35 C108.21 73.26, 136.78 42.09, 171.22 0.44 M80.03 105.35 C110.96 69.87, 142.25 34.92, 171.22 0.44 M85.02 105.71 C117.96 67.8, 147.8 29.58, 176.21 0.8 M85.02 105.71 C111.1 75.09, 137.66 43.99, 176.21 0.8 M90.66 105.31 C112.21 78.9, 136.67 48.96, 181.85 0.41 M90.66 105.31 C121.34 68.44, 153.59 31.73, 181.85 0.41 M95.65 105.67 C118.87 78.57, 141.9 50.27, 186.84 0.77 M95.65 105.67 C129.93 67.2, 164.63 26.18, 186.84 0.77 M101.29 105.28 C137.43 64.83, 171.02 26.87, 192.48 0.37 M101.29 105.28 C129.38 72.2, 159.46 39.65, 192.48 0.37 M106.28 105.64 C136.47 72.89, 167.94 38.33, 197.47 0.73 M106.28 105.64 C137.9 68.21, 170.62 31.23, 197.47 0.73 M111.92 105.24 C132.86 80.11, 154.7 59.36, 203.11 0.34 M111.92 105.24 C147.86 63.09, 184.44 21.18, 203.11 0.34 M116.91 105.6 C139.2 82.88, 158.52 61.41, 208.1 0.7 M116.91 105.6 C153.22 62.66, 188.99 22.91, 208.1 0.7 M122.55 105.21 C143.39 81.02, 162.85 57.9, 213.74 0.3 M122.55 105.21 C146.61 78.24, 169.18 51.81, 213.74 0.3 M127.54 105.57 C163.19 63.13, 198.33 22.39, 218.73 0.66 M127.54 105.57 C161.13 69.08, 191.28 31.82, 218.73 0.66 M133.18 105.17 C169.67 64.21, 201.33 24.96, 224.37 0.27 M133.18 105.17 C155.79 80.93, 177.01 55.12, 224.37 0.27 M138.17 105.53 C163.74 75.56, 187.42 49.03, 229.36 0.63 M138.17 105.53 C172.81 64.71, 208.94 25.11, 229.36 0.63 M143.16 105.89 C169.93 77.06, 192.74 48.16, 235 0.23 M143.16 105.89 C166.13 80.96, 189.03 54.75, 235 0.23 M148.8 105.5 C175.76 71.94, 208.11 38.7, 239.99 0.59 M148.8 105.5 C182.85 65.33, 220 23.3, 239.99 0.59 M153.79 105.86 C179.33 76.48, 204.43 45.98, 245.63 0.2 M153.79 105.86 C175.3 79.12, 196.44 54.82, 245.63 0.2 M159.43 105.46 C190.19 65.75, 223.44 30.07, 250.62 0.56 M159.43 105.46 C191.41 69.49, 221.79 34.54, 250.62 0.56 M164.42 105.82 C201.73 61.37, 236.01 20.82, 256.26 0.16 M164.42 105.82 C191.71 74.34, 219.43 41.77, 256.26 0.16 M170.06 105.43 C190.23 84.52, 208.16 64.52, 261.25 0.52 M170.06 105.43 C198.19 70.52, 226.83 38.59, 261.25 0.52 M175.05 105.79 C209.34 63.54, 244.22 22.08, 266.89 0.13 M175.05 105.79 C196.84 80.76, 220.09 54.5, 266.89 0.13 M180.69 105.4 C208.3 78.15, 232.37 47.51, 271.88 0.49 M180.69 105.4 C210.68 71.66, 240.93 37, 271.88 0.49 M185.68 105.76 C207.5 82.91, 228.76 58.82, 277.52 0.1 M185.68 105.76 C216.77 70.44, 247.63 34.31, 277.52 0.1 M191.32 105.36 C210.42 80.68, 230.27 61.23, 282.51 0.46 M191.32 105.36 C213.39 78.28, 238.32 49.24, 282.51 0.46 M196.31 105.72 C220.21 77.29, 243.97 52.56, 287.5 0.82 M196.31 105.72 C213.84 85.15, 233.7 63.71, 287.5 0.82 M201.95 105.33 C219.89 83.45, 239.43 62.87, 293.14 0.42 M201.95 105.33 C231.22 69.17, 261.58 36.08, 293.14 0.42 M206.94 105.69 C231.67 78.37, 253.2 54.15, 298.13 0.78 M206.94 105.69 C239.94 68.67, 270.97 31.06, 298.13 0.78 M212.58 105.29 C232.07 78.25, 254.75 55.7, 303.77 0.39 M212.58 105.29 C235.66 77.2, 258.83 52.19, 303.77 0.39 M217.57 105.65 C246.61 68.5, 279.94 32.21, 308.76 0.75 M217.57 105.65 C254.53 64.75, 289.51 23.34, 308.76 0.75 M223.21 105.26 C253.07 72.4, 285.26 35.19, 314.4 0.35 M223.21 105.26 C244.56 79.85, 266.74 55.74, 314.4 0.35 M228.2 105.62 C254.11 74.6, 279.12 46.36, 319.39 0.71 M228.2 105.62 C251.32 79.74, 273.76 51.69, 319.39 0.71 M233.84 105.22 C259.03 79.84, 279.21 49.08, 325.03 0.32 M233.84 105.22 C254.99 82.06, 274.41 59.15, 325.03 0.32 M238.83 105.58 C276.08 63.4, 312.65 21.73, 330.02 0.68 M238.83 105.58 C272.39 67.9, 304.71 32.12, 330.02 0.68 M244.47 105.19 C263.05 86.41, 281.59 63.83, 335.01 1.04 M244.47 105.19 C263.37 80.83, 285.82 57.93, 335.01 1.04 M249.46 105.55 C267.95 82.14, 290.11 56.9, 339.34 2.15 M249.46 105.55 C271.69 80.45, 293.37 53.67, 339.34 2.15 M254.44 105.91 C285.84 72.19, 316.31 32.97, 343.67 3.27 M254.44 105.91 C273.48 84.49, 291.95 64.56, 343.67 3.27 M260.09 105.51 C284.75 76.04, 311.24 48.32, 346.69 5.89 M260.09 105.51 C291.6 69.29, 321.5 33.44, 346.69 5.89 M265.07 105.87 C284.17 79.64, 308.28 55.72, 349.71 8.52 M265.07 105.87 C296.76 68.27, 329.55 30.35, 349.71 8.52 M270.72 105.48 C293.49 78.11, 318.76 52.09, 352.07 11.9 M270.72 105.48 C289.28 82.06, 310.36 59.4, 352.07 11.9 M275.7 105.84 C297.66 79.37, 320.97 52.96, 353.77 16.03 M275.7 105.84 C301.56 76.64, 327.03 46.06, 353.77 16.03 M281.35 105.44 C306.69 77.59, 331.4 48.96, 354.83 20.92 M281.35 105.44 C307.06 76.62, 333.79 46.76, 354.83 20.92 M286.33 105.8 C299.22 90.94, 314.96 74.56, 355.22 26.56 M286.33 105.8 C304.84 83.41, 324.88 61.04, 355.22 26.56 M291.98 105.41 C313.41 77.37, 339.76 52.49, 354.96 32.96 M291.98 105.41 C308.16 88.09, 322.91 70.35, 354.96 32.96 M296.96 105.77 C318.86 81.74, 339.99 55.53, 355.35 38.6 M296.96 105.77 C309.72 90.35, 323.04 75.03, 355.35 38.6 M302.61 105.38 C314.53 88.97, 326.75 75.64, 355.09 45 M302.61 105.38 C323.03 81.46, 343.78 57.21, 355.09 45 M307.59 105.74 C323.16 90.67, 337.22 71.52, 355.49 50.64 M307.59 105.74 C318.73 92.7, 329.18 81.98, 355.49 50.64 M313.24 105.34 C326.78 93.41, 335.22 77.81, 355.22 57.04 M313.24 105.34 C328.41 86.53, 345.07 69.64, 355.22 57.04 M318.22 105.7 C330.45 90.14, 343.99 75.99, 355.62 62.68 M318.22 105.7 C327.57 95.64, 335.31 85.63, 355.62 62.68 M323.87 105.31 C333.01 94.18, 345.11 81.67, 355.36 69.08 M323.87 105.31 C330.94 95.65, 339.18 87.51, 355.36 69.08 M328.85 105.67 C336.47 95.51, 344.56 88.44, 355.75 74.72 M328.85 105.67 C338.64 93.89, 347.97 82.85, 355.75 74.72 M335.81 103.76 C342.19 97.35, 350.77 87.53, 355.49 81.12 M335.81 103.76 C340.65 98.31, 344.56 93.4, 355.49 81.12 M342.11 102.61 C345.63 98.92, 351.39 94.51, 354.57 88.27 M342.11 102.61 C347.93 97.38, 351.6 91.01, 354.57 88.27" stroke="#ced4da" stroke-width="0.5" fill="none"></path><path d="M26.25 0 C142.45 0, 257.82 0.48, 328.75 0 M26.25 0 C119.95 1.05, 214.33 0.86, 328.75 0 M328.75 0 C347.09 -0.67, 356.44 8.73, 355 26.25 M328.75 0 C346.66 1.81, 354.42 7.15, 355 26.25 M355 26.25 C354 48.04, 353.41 67, 355 78.75 M355 26.25 C355.68 45.81, 354.74 66.83, 355 78.75 M355 78.75 C356.41 97.77, 347.59 105.46, 328.75 105 M355 78.75 C356.99 94.53, 345.35 107.07, 328.75 105 M328.75 105 C226.33 103.68, 123.86 103.71, 26.25 105 M328.75 105 C212.63 103.36, 96.65 102.64, 26.25 105 M26.25 105 C9.38 104.34, -1.11 95.77, 0 78.75 M26.25 105 C6.82 105.57, 0.04 94.35, 0 78.75 M0 78.75 C-1.55 59.75, -0.55 44.66, 0 26.25 M0 78.75 C0.34 64.56, -0.77 52.28, 0 26.25 M0 26.25 C1.58 8.6, 10.44 -0.96, 26.25 0 M0 26.25 C1.74 9.96, 9.16 -2.18, 26.25 0" stroke="#000000" stroke-width="1" fill="none"></path></g><g transform="translate(557.6961975097656 205.50004119873046) rotate(0 152.4039306640625 16.80000000000001)"><text x="152.4039306640625" y="0" font-family="Virgil, Segoe UI Emoji" font-size="28px" fill="#000000" text-anchor="middle" style="white-space: pre;" direction="ltr" dominant-baseline="text-before-edge">Dedicated Key (CSEK)</text></g><g stroke-linecap="round"><g transform="translate(312.88073566869616 168.60003662109375) rotate(0 108.12051224799933 -57.57031244468283)"><path d="M0.97 -0.5 C11.35 -17.54, 27.13 -82.84, 63.01 -101.56 C98.89 -120.27, 190.61 -110.74, 216.23 -112.8 M0.02 -1.81 C10.19 -18.71, 26.17 -81.3, 62.11 -100.1 C98.04 -118.91, 189.74 -112.51, 215.62 -114.64" stroke="#000000" stroke-width="1" fill="none"></path></g><g transform="translate(312.88073566869616 168.60003662109375) rotate(0 108.12051224799933 -57.57031244468283)"><path d="M187.58 -103.99 C196.71 -107.87, 207.33 -111.32, 215.62 -114.64 M187.58 -103.99 C198.06 -107.12, 208.62 -112.12, 215.62 -114.64" stroke="#000000" stroke-width="1" fill="none"></path></g><g transform="translate(312.88073566869616 168.60003662109375) rotate(0 108.12051224799933 -57.57031244468283)"><path d="M187.29 -124.51 C196.64 -121.05, 207.36 -117.16, 215.62 -114.64 M187.29 -124.51 C198.02 -119.85, 208.69 -117.06, 215.62 -114.64" stroke="#000000" stroke-width="1" fill="none"></path></g></g><mask></mask><g stroke-linecap="round" transform="translate(548.5000305175781 352.10011291503906) rotate(0 177.5 52.5)"><path d="M3.9 10.01 C3.9 10.01, 3.9 10.01, 3.9 10.01 M3.9 10.01 C3.9 10.01, 3.9 10.01, 3.9 10.01 M0.36 20.19 C6.67 14.33, 8.13 9.96, 15.45 2.83 M0.36 20.19 C6.01 14.32, 11.49 8.54, 15.45 2.83 M0.1 26.58 C6.23 18.78, 14.88 13.14, 22.4 0.92 M0.1 26.58 C5.8 18.69, 13.25 11.54, 22.4 0.92 M0.49 32.23 C9.42 21.45, 15.22 12.4, 28.05 0.53 M0.49 32.23 C9.72 21.21, 17.2 11.43, 28.05 0.53 M0.23 38.62 C11.74 24.99, 23.62 10.76, 33.69 0.13 M0.23 38.62 C7.97 28.55, 17.09 18.9, 33.69 0.13 M0.62 44.27 C9.16 35.54, 20.3 23.61, 38.68 0.49 M0.62 44.27 C8.76 35.19, 17.37 24.8, 38.68 0.49 M0.36 50.67 C11.46 37.44, 24.75 23.19, 44.32 0.1 M0.36 50.67 C17.14 30.11, 33.75 11.36, 44.32 0.1 M0.1 57.06 C14.84 40.64, 27.78 21.94, 49.31 0.46 M0.1 57.06 C20.05 34.69, 38.17 14.15, 49.31 0.46 M0.5 62.71 C20.18 40.37, 39.52 17.25, 54.29 0.82 M0.5 62.71 C18.06 42.14, 35.09 23.22, 54.29 0.82 M0.23 69.1 C18.82 50.76, 32.21 31.6, 59.94 0.43 M0.23 69.1 C13.47 53.02, 28.11 36.61, 59.94 0.43 M0.63 74.75 C22.7 50.84, 46.38 25.12, 64.92 0.79 M0.63 74.75 C15.06 59.92, 28.44 44.82, 64.92 0.79 M0.37 81.15 C24.08 52.5, 49.69 23.66, 70.57 0.39 M0.37 81.15 C21.26 57.07, 44.25 32.51, 70.57 0.39 M1.42 86.03 C26.44 57.12, 51.77 26.19, 75.55 0.75 M1.42 86.03 C22.3 62.43, 43.53 39.68, 75.55 0.75 M2.47 90.92 C21.32 66, 45.9 40.68, 81.2 0.36 M2.47 90.92 C22.05 67.81, 41.92 45.96, 81.2 0.36 M4.18 95.06 C26.06 68.77, 49.09 43.33, 86.18 0.72 M4.18 95.06 C25.54 69.31, 47.8 44.68, 86.18 0.72 M6.54 98.43 C24.2 75.62, 40.65 58.32, 91.83 0.32 M6.54 98.43 C23.3 76.76, 41.2 56.88, 91.83 0.32 M10.21 100.3 C35.14 71.97, 57.57 46.79, 96.81 0.68 M10.21 100.3 C31.48 74.41, 54.56 51.15, 96.81 0.68 M13.23 102.93 C41.3 70.4, 72.56 36.36, 102.46 0.29 M13.23 102.93 C34.92 77.09, 56.39 51.67, 102.46 0.29 M17.56 104.04 C37.33 83.1, 55.05 62.89, 107.44 0.65 M17.56 104.04 C51.89 66.35, 86.15 27.39, 107.44 0.65 M22.55 104.4 C56.97 68.3, 88.03 28.93, 113.09 0.25 M22.55 104.4 C52.07 70.62, 80.73 37.02, 113.09 0.25 M26.88 105.52 C59.96 63.96, 97.13 24.09, 118.07 0.61 M26.88 105.52 C54.21 72.65, 83.89 40.07, 118.07 0.61 M31.87 105.88 C56.72 76.72, 83.15 48.59, 123.72 0.22 M31.87 105.88 C58.54 72.29, 87.53 40.55, 123.72 0.22 M37.51 105.48 C67.65 71.02, 95.9 37.32, 128.7 0.58 M37.51 105.48 C60.17 80.06, 82.71 54.89, 128.7 0.58 M42.5 105.84 C76.47 63.41, 115.75 23.57, 134.35 0.18 M42.5 105.84 C77.15 65.22, 111.9 25.21, 134.35 0.18 M48.14 105.45 C73.19 79.11, 95.87 48.75, 139.33 0.54 M48.14 105.45 C70.74 80.74, 91.06 57.89, 139.33 0.54 M53.13 105.81 C77.51 79.71, 100.05 49.7, 144.98 0.15 M53.13 105.81 C73.35 82.94, 93.32 59.37, 144.98 0.15 M58.77 105.41 C89.03 71.06, 118.09 34.51, 149.96 0.51 M58.77 105.41 C81.36 78.01, 106.82 50.64, 149.96 0.51 M63.76 105.77 C100.14 66.6, 132.08 23.96, 155.61 0.12 M63.76 105.77 C82.8 82.94, 103.89 59.19, 155.61 0.12 M69.4 105.38 C103.7 69.09, 136.91 27.75, 160.59 0.48 M69.4 105.38 C91.13 81.1, 112.98 56.49, 160.59 0.48 M74.39 105.74 C99.38 73.7, 129.94 42.54, 165.58 0.84 M74.39 105.74 C97.29 77.51, 122.34 50.01, 165.58 0.84 M80.03 105.35 C102.17 78.53, 122.55 53.38, 171.22 0.44 M80.03 105.35 C110.58 68.89, 143.87 32.27, 171.22 0.44 M85.02 105.71 C110.61 74.04, 141.62 40.51, 176.21 0.8 M85.02 105.71 C117.07 68.56, 150.04 31.06, 176.21 0.8 M90.66 105.31 C110.74 80.81, 130.47 59.13, 181.85 0.41 M90.66 105.31 C119.8 74.29, 146.38 40.68, 181.85 0.41 M95.65 105.67 C124.56 71.81, 156.54 35.66, 186.84 0.77 M95.65 105.67 C115.05 82.12, 135.85 58.97, 186.84 0.77 M101.29 105.28 C135.41 67.28, 165 28.26, 192.48 0.37 M101.29 105.28 C130.47 70.86, 157.15 37.94, 192.48 0.37 M106.28 105.64 C130.34 78.02, 154.18 53, 197.47 0.73 M106.28 105.64 C128.61 79.37, 151.63 53.26, 197.47 0.73 M111.92 105.24 C138.72 73.68, 169.99 39.03, 203.11 0.34 M111.92 105.24 C139.97 74.89, 165.72 43.81, 203.11 0.34 M116.91 105.6 C150.57 67.78, 187.45 24.3, 208.1 0.7 M116.91 105.6 C150.29 67.35, 183.37 27.13, 208.1 0.7 M122.55 105.21 C149.99 73.37, 174.2 45.07, 213.74 0.3 M122.55 105.21 C146.98 77.98, 168.64 50.22, 213.74 0.3 M127.54 105.57 C144.86 85.43, 164.74 63.16, 218.73 0.66 M127.54 105.57 C145.76 84.2, 165.39 61.69, 218.73 0.66 M133.18 105.17 C165.13 65.65, 198.17 27.55, 224.37 0.27 M133.18 105.17 C164.18 70.13, 196.11 34.37, 224.37 0.27 M138.17 105.53 C173.2 65.28, 207.65 23.92, 229.36 0.63 M138.17 105.53 C165.33 74.74, 193.33 41.64, 229.36 0.63 M143.16 105.89 C173.62 71.17, 205.43 34.39, 235 0.23 M143.16 105.89 C178.86 65.08, 214.44 23.69, 235 0.23 M148.8 105.5 C170.03 81.47, 188.01 60.26, 239.99 0.59 M148.8 105.5 C175.8 75.62, 201.78 47.31, 239.99 0.59 M153.79 105.86 C179.16 79.64, 202.68 51.08, 245.63 0.2 M153.79 105.86 C185.24 71.48, 215.77 36.31, 245.63 0.2 M159.43 105.46 C194.31 65.86, 229.27 29.37, 250.62 0.56 M159.43 105.46 C186.07 76.33, 213.61 44.7, 250.62 0.56 M164.42 105.82 C194.84 71.11, 224.54 40.09, 256.26 0.16 M164.42 105.82 C184.01 82.74, 203.15 59.09, 256.26 0.16 M170.06 105.43 C197.72 72.77, 225.58 41.45, 261.25 0.52 M170.06 105.43 C204.55 64.44, 240.66 25.8, 261.25 0.52 M175.05 105.79 C206.06 69.82, 236.41 35.31, 266.89 0.13 M175.05 105.79 C194.24 84.19, 211.6 61.77, 266.89 0.13 M180.69 105.4 C203.61 77.18, 231.18 48.11, 271.88 0.49 M180.69 105.4 C211 70.07, 239.31 37.91, 271.88 0.49 M185.68 105.76 C213.04 73.99, 244.29 40.11, 277.52 0.1 M185.68 105.76 C218.18 69.11, 250.68 32.01, 277.52 0.1 M191.32 105.36 C221.56 69.49, 251.67 37.97, 282.51 0.46 M191.32 105.36 C225.14 68.02, 258.09 29.9, 282.51 0.46 M196.31 105.72 C218.35 78.28, 243.8 51.17, 287.5 0.82 M196.31 105.72 C214.49 83.39, 234.87 60.37, 287.5 0.82 M201.95 105.33 C229.22 71.82, 258 41.04, 293.14 0.42 M201.95 105.33 C227.77 77.62, 251.57 47.03, 293.14 0.42 M206.94 105.69 C237.93 68.66, 270.15 31.49, 298.13 0.78 M206.94 105.69 C233.87 76.31, 260.32 46.61, 298.13 0.78 M212.58 105.29 C237.23 76.08, 259.7 48.79, 303.77 0.39 M212.58 105.29 C241.73 70.36, 272.53 35.52, 303.77 0.39 M217.57 105.65 C252.95 65.64, 286.17 25.92, 308.76 0.75 M217.57 105.65 C248.57 71.24, 278.67 34.29, 308.76 0.75 M223.21 105.26 C242.59 84.25, 264.11 59.4, 314.4 0.35 M223.21 105.26 C255.19 69.94, 284.05 35.68, 314.4 0.35 M228.2 105.62 C257.58 71.97, 289.51 37.01, 319.39 0.71 M228.2 105.62 C250.96 79.74, 273.62 53.7, 319.39 0.71 M233.84 105.22 C252.8 83.57, 272.54 61, 325.03 0.32 M233.84 105.22 C265.7 67.86, 298.53 31.44, 325.03 0.32 M238.83 105.58 C272.87 65.66, 306.39 30.22, 330.02 0.68 M238.83 105.58 C257.15 85.47, 276.51 63.17, 330.02 0.68 M244.47 105.19 C263.67 79.56, 285.85 56.79, 335.01 1.04 M244.47 105.19 C280.44 65.48, 313.18 26.74, 335.01 1.04 M249.46 105.55 C271.3 79.33, 293.11 52.63, 339.34 2.15 M249.46 105.55 C278.66 72.55, 307.13 39.72, 339.34 2.15 M254.44 105.91 C282.95 73.24, 312.23 38.2, 343.67 3.27 M254.44 105.91 C283.56 72.62, 312.01 39.38, 343.67 3.27 M260.09 105.51 C292.51 71.85, 322.92 35.63, 346.69 5.89 M260.09 105.51 C293.65 65.76, 329.03 28.07, 346.69 5.89 M265.07 105.87 C290.16 79.46, 312.62 48.35, 349.71 8.52 M265.07 105.87 C297.69 66.59, 331.9 28.28, 349.71 8.52 M270.72 105.48 C289.78 86.22, 307.55 64.69, 352.07 11.9 M270.72 105.48 C297.68 75.2, 324.24 43.41, 352.07 11.9 M275.7 105.84 C300.3 77.31, 323.53 49.12, 353.77 16.03 M275.7 105.84 C297.94 79.94, 322.78 53.32, 353.77 16.03 M281.35 105.44 C294.79 87.95, 310.14 68.28, 354.83 20.92 M281.35 105.44 C307.88 75.75, 333.97 44.31, 354.83 20.92 M286.33 105.8 C299.72 90.13, 314.84 73.72, 355.22 26.56 M286.33 105.8 C304.99 84.42, 320.97 64.21, 355.22 26.56 M291.98 105.41 C309.14 87.04, 323.41 69.26, 354.96 32.96 M291.98 105.41 C316.01 78.63, 338.77 50.73, 354.96 32.96 M296.96 105.77 C315.39 80.94, 336.23 61.36, 355.35 38.6 M296.96 105.77 C309.12 92.05, 320.35 78.69, 355.35 38.6 M302.61 105.38 C316.52 89.68, 331.88 68.67, 355.09 45 M302.61 105.38 C314.67 90.06, 326.74 75.15, 355.09 45 M307.59 105.74 C324.17 89.06, 336.5 70.52, 355.49 50.64 M307.59 105.74 C325.23 86.38, 340.68 66.13, 355.49 50.64 M313.24 105.34 C324.97 92.04, 334.3 83.4, 355.22 57.04 M313.24 105.34 C325.16 91.82, 336.25 79.87, 355.22 57.04 M318.22 105.7 C327.55 92.32, 340.45 81, 355.62 62.68 M318.22 105.7 C328.11 94.27, 337.52 82.71, 355.62 62.68 M323.87 105.31 C329.74 98.29, 337.7 87.88, 355.36 69.08 M323.87 105.31 C334.9 94.95, 344.17 82.54, 355.36 69.08 M328.85 105.67 C336.01 100, 340.9 90.82, 355.75 74.72 M328.85 105.67 C339.49 94.15, 349.17 81.85, 355.75 74.72 M335.81 103.76 C338.17 97.8, 343.47 92.92, 355.49 81.12 M335.81 103.76 C342.7 96.21, 347.22 88.79, 355.49 81.12 M342.11 102.61 C345.11 95.97, 350.84 93, 354.57 88.27 M342.11 102.61 C344.28 99.09, 348.74 96.92, 354.57 88.27" stroke="#ced4da" stroke-width="0.5" fill="none"></path><path d="M26.25 0 C134.87 1.26, 241.23 0.47, 328.75 0 M26.25 0 C143.61 0.62, 262.6 0.33, 328.75 0 M328.75 0 C346.07 1.11, 355.47 7.7, 355 26.25 M328.75 0 C347.89 1.38, 353.79 10.47, 355 26.25 M355 26.25 C354.64 40.46, 354.12 55.98, 355 78.75 M355 26.25 C354.73 41.5, 354.95 57.06, 355 78.75 M355 78.75 C354.07 97.9, 345.09 105.48, 328.75 105 M355 78.75 C357.11 98.08, 344 104.18, 328.75 105 M328.75 105 C226.24 102.65, 123.25 103.13, 26.25 105 M328.75 105 C264.81 107.02, 198.95 105.63, 26.25 105 M26.25 105 C9.34 106.01, 0.07 95.92, 0 78.75 M26.25 105 C10.22 106.2, 1.9 94.34, 0 78.75 M0 78.75 C-1.52 65.05, 1.04 51.52, 0 26.25 M0 78.75 C-0.41 63.14, -0.24 48.25, 0 26.25 M0 26.25 C0.02 6.96, 8.07 -0.6, 26.25 0 M0 26.25 C1.92 7.63, 10.73 -0.6, 26.25 0" stroke="#000000" stroke-width="1" fill="none"></path></g><g transform="translate(584.0260925292969 387.8001129150391) rotate(0 141.97393798828125 16.80000000000001)"><text x="141.97393798828125" y="0" font-family="Virgil, Segoe UI Emoji" font-size="28px" fill="#000000" text-anchor="middle" style="white-space: pre;" direction="ltr" dominant-baseline="text-before-edge">Managed Key (CCEK)</text></g><g stroke-linecap="round" transform="translate(520.0000915527344 323.60003662109375) rotate(0 369.5999755859375 83.5999984741211)"><path d="M32 0 C229.3 -0.11, 426.19 0.28, 707.2 0 M707.2 0 C727.62 0.78, 741.13 8.81, 739.2 32 M739.2 32 C739.73 71.58, 738.58 107.34, 739.2 135.2 M739.2 135.2 C740.72 156.06, 727.03 166.09, 707.2 167.2 M707.2 167.2 C532.15 169.93, 359.11 169.6, 32 167.2 M32 167.2 C9.6 169.19, -0.94 157.89, 0 135.2 M0 135.2 C-1.05 95.36, 0.57 54.22, 0 32 M0 32 C-1.26 10.16, 10.3 -1.6, 32 0" stroke="#000000" stroke-width="1.5" fill="none" stroke-dasharray="1.5 7"></path></g><g transform="translate(939.8000793457031 386.80003356933594) rotate(0 145.59994506835938 16.80000000000001)"><text x="0" y="0" font-family="Virgil, Segoe UI Emoji" font-size="28px" fill="#000000" text-anchor="start" style="white-space: pre;" direction="ltr" dominant-baseline="text-before-edge">SAP Data Custodian</text></g><g stroke-linecap="round" transform="translate(531.6000061035156 10) rotate(0 177.5 52.5)"><path d="M3.9 10.01 C3.9 10.01, 3.9 10.01, 3.9 10.01 M3.9 10.01 C3.9 10.01, 3.9 10.01, 3.9 10.01 M0.36 20.19 C2.44 17.26, 7.49 12.78, 12.82 5.85 M0.36 20.19 C3.83 15.99, 6.24 13.66, 12.82 5.85 M0.1 26.58 C5.79 20.7, 15.55 11.44, 19.12 4.7 M0.1 26.58 C4.99 21.86, 8.62 17.15, 19.12 4.7 M0.49 32.23 C8.62 26.06, 15.8 17.39, 27.39 1.28 M0.49 32.23 C8.31 24.04, 14.88 15.78, 27.39 1.28 M0.23 38.62 C10.42 28.49, 21.54 16.14, 33.03 0.89 M0.23 38.62 C12.35 24.86, 23.47 11.98, 33.03 0.89 M0.62 44.27 C10.49 31.92, 19.55 19.82, 38.02 1.25 M0.62 44.27 C15.12 27.22, 29.8 10.79, 38.02 1.25 M0.36 50.67 C13.64 38.41, 25.48 24.15, 43.66 0.85 M0.36 50.67 C14.94 35.13, 27.23 19.61, 43.66 0.85 M0.1 57.06 C14.71 36.65, 33.21 17.26, 48.65 1.21 M0.1 57.06 C12.64 43.09, 25.31 28.66, 48.65 1.21 M0.5 62.71 C17.55 44.51, 34.11 23.69, 54.29 0.82 M0.5 62.71 C16.36 44.52, 33.53 25.23, 54.29 0.82 M0.23 69.1 C15.94 50.01, 34.52 33.1, 59.28 1.18 M0.23 69.1 C16.13 50.32, 32.98 31.64, 59.28 1.18 M0.63 74.75 C11.72 58.84, 28.36 44.59, 64.92 0.79 M0.63 74.75 C15.35 59.72, 28.41 43.33, 64.92 0.79 M0.37 81.15 C16.22 63.63, 30.05 49.46, 69.91 1.15 M0.37 81.15 C19.17 61.5, 36.68 41.4, 69.91 1.15 M1.42 86.03 C26.5 58.68, 48.14 30.86, 75.55 0.75 M1.42 86.03 C20.09 63.35, 38.56 42.44, 75.55 0.75 M3.12 90.17 C23.27 68.58, 44.97 45.92, 80.54 1.11 M3.12 90.17 C20.69 69.62, 38.58 47.81, 80.54 1.11 M4.18 95.06 C30.38 65.28, 59.84 32.41, 85.53 1.47 M4.18 95.06 C28.57 64.81, 53.93 37.01, 85.53 1.47 M6.54 98.43 C23.82 76.17, 44.89 56.54, 91.17 1.08 M6.54 98.43 C27.17 75.99, 47.84 53.32, 91.17 1.08 M9.56 101.06 C34.24 72.25, 59.82 44.67, 96.16 1.44 M9.56 101.06 C42.46 60.53, 77.21 22.59, 96.16 1.44 M13.23 102.93 C42.94 66.01, 73.07 31.41, 101.8 1.04 M13.23 102.93 C39.52 72.62, 66.73 40.42, 101.8 1.04 M16.91 104.8 C50.29 65.18, 86.53 28.1, 106.79 1.4 M16.91 104.8 C36.82 82.2, 56.4 58.1, 106.79 1.4 M21.24 105.91 C48.55 75.35, 75.67 45.11, 112.43 1.01 M21.24 105.91 C45.79 77.71, 70.86 50.12, 112.43 1.01 M26.88 105.52 C52.28 72.88, 82.07 42.22, 117.42 1.37 M26.88 105.52 C44.81 85.23, 64.7 63.76, 117.42 1.37 M31.87 105.88 C52.37 80.58, 74.31 57.98, 123.06 0.97 M31.87 105.88 C65.29 66.89, 99.1 27.59, 123.06 0.97 M37.51 105.48 C71.18 67.21, 109.34 22.62, 128.05 1.33 M37.51 105.48 C61.58 78.16, 83.87 52.75, 128.05 1.33 M42.5 105.84 C67.75 75.86, 96.68 42.8, 133.69 0.94 M42.5 105.84 C65.7 79.77, 86.9 55.71, 133.69 0.94 M48.14 105.45 C67.65 78.66, 91.6 57.73, 138.68 1.3 M48.14 105.45 C82.78 65.19, 117.5 23.3, 138.68 1.3 M53.13 105.81 C84.55 70.39, 115.85 35.46, 144.32 0.9 M53.13 105.81 C84.74 69.04, 115.21 34.1, 144.32 0.9 M58.77 105.41 C76.58 83.78, 95.73 62.53, 149.31 1.26 M58.77 105.41 C89.03 69.87, 118.12 35.08, 149.31 1.26 M63.76 105.77 C81.78 85.87, 100.33 61.42, 154.95 0.87 M63.76 105.77 C90.45 73.4, 119.6 40.97, 154.95 0.87 M69.4 105.38 C91.92 81.21, 116.66 51.29, 159.94 1.23 M69.4 105.38 C95.19 74.36, 123.1 40.95, 159.94 1.23 M74.39 105.74 C98.59 78.53, 121.51 51.81, 165.58 0.84 M74.39 105.74 C110.94 63.87, 145.75 22.61, 165.58 0.84 M80.03 105.35 C100.71 83.45, 119.56 59.67, 170.57 1.2 M80.03 105.35 C102.44 80.9, 122.21 55.79, 170.57 1.2 M85.02 105.71 C102.27 81.89, 122.49 63.05, 176.21 0.8 M85.02 105.71 C108.76 78.83, 132.34 52.27, 176.21 0.8 M90.66 105.31 C117.48 73.38, 146.54 39.58, 181.2 1.16 M90.66 105.31 C124.25 69.02, 155.97 29.17, 181.2 1.16 M95.65 105.67 C126.32 72.36, 151.33 41.6, 186.84 0.77 M95.65 105.67 C126.79 69.16, 158.58 32.44, 186.84 0.77 M101.29 105.28 C127.86 71.21, 155.76 41.46, 191.83 1.13 M101.29 105.28 C120.12 83.98, 140.83 60.01, 191.83 1.13 M106.28 105.64 C126.38 85.95, 145.64 61.67, 196.81 1.49 M106.28 105.64 C136 71.02, 167.93 35.75, 196.81 1.49 M111.92 105.24 C138.76 71.91, 168.07 40.38, 202.46 1.09 M111.92 105.24 C132.24 81.81, 152.69 56.93, 202.46 1.09 M116.91 105.6 C136.64 83.76, 155 60.26, 207.44 1.45 M116.91 105.6 C143.87 76.21, 168.79 46.38, 207.44 1.45 M122.55 105.21 C154.46 64.33, 190.86 28.81, 213.09 1.06 M122.55 105.21 C152.91 69.12, 183.6 33.83, 213.09 1.06 M127.54 105.57 C151.73 79.69, 174.76 50.71, 218.07 1.42 M127.54 105.57 C150.24 80.17, 172.45 53.68, 218.07 1.42 M133.18 105.17 C158.19 75.97, 185.6 42.25, 223.72 1.02 M133.18 105.17 C152.44 84.78, 169.72 62.87, 223.72 1.02 M138.17 105.53 C169.7 66.5, 206.16 30.1, 228.7 1.38 M138.17 105.53 C166.68 72.67, 195.49 41.73, 228.7 1.38 M143.16 105.89 C166.28 83.52, 184.38 59.08, 234.35 0.99 M143.16 105.89 C175.47 69.14, 208.54 32.29, 234.35 0.99 M148.8 105.5 C181.72 67.74, 215.69 28.27, 239.33 1.35 M148.8 105.5 C179.84 69.24, 210.68 33.9, 239.33 1.35 M153.79 105.86 C177.64 77.9, 202.64 51.96, 244.98 0.95 M153.79 105.86 C175.66 78.17, 199.51 52.12, 244.98 0.95 M159.43 105.46 C194.42 67.45, 225.63 27.8, 249.96 1.31 M159.43 105.46 C177.56 83.64, 197.31 60.46, 249.96 1.31 M164.42 105.82 C188.88 82.25, 208.97 57.67, 255.61 0.92 M164.42 105.82 C186.3 79.87, 207.35 54.3, 255.61 0.92 M170.06 105.43 C197.58 74.24, 225.58 41.83, 260.6 1.28 M170.06 105.43 C187.39 82.93, 205.86 61.95, 260.6 1.28 M175.05 105.79 C206.54 67.81, 239.34 30.93, 266.24 0.89 M175.05 105.79 C211.15 64.13, 245.08 24.97, 266.24 0.89 M180.69 105.4 C212.3 65.21, 244.77 28.26, 271.23 1.25 M180.69 105.4 C199.85 84.4, 218.85 63.54, 271.23 1.25 M185.68 105.76 C216.18 69.69, 245.39 35.91, 276.87 0.85 M185.68 105.76 C205.5 81.62, 226.91 58.17, 276.87 0.85 M191.32 105.36 C222.8 67.28, 257.64 25.58, 281.86 1.21 M191.32 105.36 C216.68 75.47, 243.4 44.35, 281.86 1.21 M196.31 105.72 C222.69 74.95, 247.76 50.28, 287.5 0.82 M196.31 105.72 C218.32 77.98, 242.08 53.14, 287.5 0.82 M201.95 105.33 C222.68 80.28, 242.18 58.31, 292.49 1.18 M201.95 105.33 C235.09 66.8, 267.29 30.22, 292.49 1.18 M206.94 105.69 C240.52 63.56, 276 23.27, 298.13 0.78 M206.94 105.69 C225.75 83.88, 244.48 62.32, 298.13 0.78 M212.58 105.29 C232.76 82.53, 254.13 56.93, 303.12 1.14 M212.58 105.29 C239.3 73.63, 266.61 42.26, 303.12 1.14 M217.57 105.65 C238.56 76.72, 264.59 51.81, 308.76 0.75 M217.57 105.65 C250.94 67.11, 285.87 27.44, 308.76 0.75 M223.21 105.26 C259.17 66.93, 292.51 29.27, 313.75 1.11 M223.21 105.26 C241.18 85.12, 260.44 63.37, 313.75 1.11 M228.2 105.62 C245.83 83.92, 266.07 60.96, 318.73 1.47 M228.2 105.62 C256.21 73.26, 284.45 40.38, 318.73 1.47 M233.84 105.22 C260.96 74.77, 283.33 46.32, 324.38 1.07 M233.84 105.22 C267.78 66.59, 300.46 26.42, 324.38 1.07 M238.83 105.58 C264.7 71.12, 293.83 40.13, 330.02 0.68 M238.83 105.58 C265.86 72.61, 294.3 42, 330.02 0.68 M244.47 105.19 C264.68 82.97, 280.5 61.51, 334.35 1.79 M244.47 105.19 C270.87 74.91, 297.74 42.07, 334.35 1.79 M249.46 105.55 C283.23 66.45, 316.5 27.04, 339.34 2.15 M249.46 105.55 C278.56 71.29, 308.17 37.09, 339.34 2.15 M254.44 105.91 C281.47 75.34, 306.67 49.11, 343.01 4.02 M254.44 105.91 C283.58 75.69, 310.6 42.84, 343.01 4.02 M260.09 105.51 C295.7 68.68, 329.15 27.68, 346.69 5.89 M260.09 105.51 C284.28 78.86, 307.59 53.48, 346.69 5.89 M265.07 105.87 C285.2 79.43, 309.06 54.07, 349.71 8.52 M265.07 105.87 C289.38 76.77, 314.27 48.39, 349.71 8.52 M270.72 105.48 C291.3 83.84, 308.74 64.78, 352.72 11.14 M270.72 105.48 C295.14 77.25, 318.29 49.27, 352.72 11.14 M275.7 105.84 C304.24 75.27, 334.86 42.48, 353.77 16.03 M275.7 105.84 C304.81 74.18, 332.01 40.92, 353.77 16.03 M281.35 105.44 C308.43 73.72, 334.56 45.24, 354.83 20.92 M281.35 105.44 C302.95 80.08, 325.4 54.62, 354.83 20.92 M286.33 105.8 C302.65 85.09, 316.66 67.56, 355.22 26.56 M286.33 105.8 C303.03 88.5, 317.61 69.93, 355.22 26.56 M291.98 105.41 C307.72 89.81, 320.22 73.86, 354.96 32.96 M291.98 105.41 C309.64 85.9, 328.33 64.82, 354.96 32.96 M296.96 105.77 C318.32 79.8, 338.14 56.4, 355.35 38.6 M296.96 105.77 C309.35 91.54, 322.92 77.21, 355.35 38.6 M302.61 105.38 C320.07 86.73, 335.58 67.96, 355.09 45 M302.61 105.38 C318.65 85.22, 337.04 65.16, 355.09 45 M307.59 105.74 C324.03 88.9, 337.67 68.92, 355.49 50.64 M307.59 105.74 C317.8 91.66, 329.5 78.9, 355.49 50.64 M313.24 105.34 C328.27 88.72, 341.01 72.85, 355.22 57.04 M313.24 105.34 C323.64 93.1, 333.7 81.99, 355.22 57.04 M318.22 105.7 C331.02 94.18, 340.62 78.27, 355.62 62.68 M318.22 105.7 C326.18 94.99, 334.73 86.42, 355.62 62.68 M323.87 105.31 C335.41 91.1, 346.71 75.74, 355.36 69.08 M323.87 105.31 C334.75 94.22, 344.4 82.26, 355.36 69.08 M328.85 105.67 C339.79 94.86, 347.33 83.29, 355.75 74.72 M328.85 105.67 C336.73 96.23, 346.09 86.77, 355.75 74.72 M335.81 103.76 C341.36 98.16, 346.39 91.29, 356.15 80.37 M335.81 103.76 C341.69 96.3, 348.54 87.66, 356.15 80.37 M342.11 102.61 C346.83 95.71, 350.69 92.55, 355.23 87.52 M342.11 102.61 C347.73 97.02, 352.31 90.19, 355.23 87.52" stroke="#ced4da" stroke-width="0.5" fill="none"></path><path d="M26.25 0 C108.54 -0.76, 190.8 0.08, 328.75 0 M26.25 0 C88.73 2.39, 152.08 1.16, 328.75 0 M328.75 0 C345.84 0.79, 354.54 6.99, 355 26.25 M328.75 0 C346.27 2.14, 354.33 8.23, 355 26.25 M355 26.25 C355.61 42.94, 356.17 57.81, 355 78.75 M355 26.25 C356.29 39.01, 355.13 52.78, 355 78.75 M355 78.75 C355.57 95.78, 348.17 103.21, 328.75 105 M355 78.75 C353.96 96.17, 344.31 103.82, 328.75 105 M328.75 105 C232.83 104.41, 137.87 105.62, 26.25 105 M328.75 105 C261.28 105.4, 194.57 105.6, 26.25 105 M26.25 105 C7.85 105.5, 0.01 94.81, 0 78.75 M26.25 105 C6.62 105.58, 0.46 96.38, 0 78.75 M0 78.75 C0.66 67.02, 1 54.69, 0 26.25 M0 78.75 C0.48 58.75, -0.16 36.76, 0 26.25 M0 26.25 C-1.31 7.8, 9.27 0.13, 26.25 0 M0 26.25 C0.81 6.75, 8.38 -0.14, 26.25 0" stroke="#000000" stroke-width="1" fill="none"></path></g><g transform="translate(630.504035949707 45.69999999999999) rotate(0 78.5959701538086 16.80000000000001)"><text x="78.5959701538086" y="0" font-family="Virgil, Segoe UI Emoji" font-size="28px" fill="#000000" text-anchor="middle" style="white-space: pre;" direction="ltr" dominant-baseline="text-before-edge">Common Key</text></g><g stroke-linecap="round"><g transform="translate(308.1795365801257 277.40690446935) rotate(0 117.61662134764356 60.59888805346037)"><path d="M1.06 0.97 C8.91 18.63, 8.87 87.34, 47.87 107.08 C86.87 126.82, 203.8 117.4, 235.07 119.42 M0.16 0.43 C8.29 18.25, 10.89 85.21, 49.98 105.27 C89.07 125.32, 204.24 118.27, 234.7 120.76" stroke="#000000" stroke-width="1" fill="none"></path></g><g transform="translate(308.1795365801257 277.40690446935) rotate(0 117.61662134764356 60.59888805346037)"><path d="M206.37 130.62 C218.23 124.88, 227.93 124.43, 234.7 120.76 M206.37 130.62 C215.42 128.23, 223.12 123.66, 234.7 120.76" stroke="#000000" stroke-width="1" fill="none"></path></g><g transform="translate(308.1795365801257 277.40690446935) rotate(0 117.61662134764356 60.59888805346037)"><path d="M206.66 110.1 C218.6 111.84, 228.2 118.88, 234.7 120.76 M206.66 110.1 C215.83 113.96, 223.44 115.65, 234.7 120.76" stroke="#000000" stroke-width="1" fill="none"></path></g></g><mask></mask><g stroke-linecap="round"><g transform="translate(359.3000183105469 220.90000915527344) rotate(0 86.40838018093223 1.1585154104338926)"><path d="M0.01 -0.12 C28.8 0.27, 143.88 2.03, 172.7 2.44 M-0.17 0.15 C28.67 0.48, 144.14 1.8, 172.98 2.19" stroke="#1e1e1e" stroke-width="1" fill="none"></path></g><g transform="translate(359.3000183105469 220.90000915527344) rotate(0 86.40838018093223 1.1585154104338926)"><path d="M144.67 12.1 C152.7 9, 161.27 6.53, 172.98 2.19 M144.67 12.1 C151.9 9.77, 159 7.04, 172.98 2.19" stroke="#1e1e1e" stroke-width="1" fill="none"></path></g><g transform="translate(359.3000183105469 220.90000915527344) rotate(0 86.40838018093223 1.1585154104338926)"><path d="M144.92 -8.42 C152.9 -5.52, 161.39 -2, 172.98 2.19 M144.92 -8.42 C152.1 -5.54, 159.14 -3.07, 172.98 2.19" stroke="#1e1e1e" stroke-width="1" fill="none"></path></g></g><mask></mask></svg>