<?xml version="1.0" encoding="UTF-8" standalone="no"?>
<svg
   id="cap"
   viewBox="0 0 56 56"
   version="1.1"
   sodipodi:docname="cdslint.svg"
   inkscape:version="1.1 (c68e22c387, 2021-05-23)"
   xmlns:inkscape="http://www.inkscape.org/namespaces/inkscape"
   xmlns:sodipodi="http://sodipodi.sourceforge.net/DTD/sodipodi-0.dtd"
   xmlns="http://www.w3.org/2000/svg"
   xmlns:svg="http://www.w3.org/2000/svg"
   xmlns:rdf="http://www.w3.org/1999/02/22-rdf-syntax-ns#"
   xmlns:cc="http://creativecommons.org/ns#"
   xmlns:dc="http://purl.org/dc/elements/1.1/">
  <metadata
     id="metadata54">
    <rdf:RDF>
      <cc:Work
         rdf:about="">
        <dc:format>image/svg+xml</dc:format>
        <dc:type
           rdf:resource="http://purl.org/dc/dcmitype/StillImage" />
        <dc:title />
      </cc:Work>
    </rdf:RDF>
  </metadata>
  <sodipodi:namedview
     pagecolor="#ffffff"
     bordercolor="#666666"
     borderopacity="1"
     objecttolerance="10"
     gridtolerance="10"
     guidetolerance="10"
     inkscape:pageopacity="0"
     inkscape:pageshadow="2"
     inkscape:window-width="1856"
     inkscape:window-height="1057"
     id="namedview52"
     showgrid="false"
     inkscape:zoom="8"
     inkscape:cx="19.125"
     inkscape:cy="48.3125"
     inkscape:window-x="56"
     inkscape:window-y="-8"
     inkscape:window-maximized="1"
     inkscape:current-layer="cap"
     inkscape:document-rotation="0"
     inkscape:pagecheckerboard="0" />
  <defs
     id="defs35">
    <style
       id="style33">
            .cls-1 { fill:#5a7a94; stroke:#8080f2; stroke-width:.2; }
            .cls-2 { fill:#0092d1; stroke:#8080f2; stroke-width:.1; }
        </style>
  </defs>
  <path
     class="cls-1"
     d="M45.84,21.462a8.489,8.489,0,0,0-12.783-5.713A10.747,10.747,0,0,0,22.41,8.5C10,8.5,11.09,21.488,11.09,21.488A10.3,10.3,0,0,0,13,41.5v-3a7.477,7.477,0,0,1-5.639-5,7.247,7.247,0,0,1,4.666-9.164l2.279-.768-.286-1.5A7.521,7.521,0,0,1,13.9,20a10.535,10.535,0,0,1,2.188-5.828,7.375,7.375,0,0,1,6.4-2.824c3.264,0,7.286,2.9,8.221,5.636l.934,2.732,2.424-1.318a7.6,7.6,0,0,1,3.39-.894,5.546,5.546,0,0,1,5.443,4.518l.288,1.528,1.125.514A7.809,7.809,0,0,1,48.891,29.7,7.809,7.809,0,0,1,43,38.5V41.52A10.793,10.793,0,0,0,52,31,10.483,10.483,0,0,0,45.84,21.462Z"
     id="path37"
     style="fill:#8080f2;fill-opacity:1" />
  <path
     class="cls-2"
     d="m 26.85,35.6375 h 12.6 a 1.575,1.8 0 0 0 0,-3.6 h -12.6 a 1.575,1.8 0 0 0 0,3.6 z"
     id="path41"
     style="fill:#00d100;fill-opacity:1;stroke:none;stroke-opacity:1" />
  <path
     class="cls-2"
     d="m 39.013242,38.42401 h -9.451484 a 1.5752474,1.885429 0 0 0 0,3.770858 h 9.451484 a 1.5752474,1.885429 0 0 0 0,-3.770858 z"
     id="path43"
     style="fill:#fff000;fill-opacity:1;stroke:none;stroke-opacity:1" />
  <path
     class="cls-2"
     d="m 39.5125,44.9375 h -12.6 a 1.575,1.8 0 0 0 0,3.6 h 12.6 a 1.575,1.8 0 0 0 0,-3.6 z"
     id="path45"
     style="fill:#e90000;fill-opacity:1;stroke:none;stroke-opacity:1" />
  <path
     style="fill:#8080f2;fill-opacity:1;stroke-width:0.00417288;stroke-linecap:round;stroke-linejoin:bevel;stroke-miterlimit:4;stroke-dasharray:none"
     d="M 12.497765,41.498766 C 10.810133,41.203781 9.2046979,40.481071 7.8176687,39.391952 7.3693775,39.039947 6.5793969,38.256034 6.2202509,37.806804 3.6724419,34.619937 3.19072,30.356163 4.9684833,26.727273 6.1162278,24.384419 8.119541,22.540973 10.52608,21.61318 l 0.469449,-0.180986 v -0.74065 c 0,-3.381105 0.967555,-6.474141 2.694461,-8.613528 1.220736,-1.512316 2.953571,-2.6280549 4.921038,-3.1685618 1.317043,-0.3618209 2.163361,-0.4593797 3.985097,-0.4593797 1.55047,0 1.838091,0.026471 2.795827,0.2573077 2.706618,0.6523588 5.042634,2.2993698 6.56624,4.6295348 0.339098,0.518608 0.759342,1.323801 0.966774,1.852353 0.08557,0.218033 0.161519,0.403162 0.168781,0.411398 0.0073,0.0082 0.234928,-0.09761 0.505927,-0.235212 1.246584,-0.632966 2.47198,-0.927304 3.860576,-0.927304 1.040279,0 1.806078,0.119421 2.724549,0.424873 2.788972,0.927518 4.888722,3.19671 5.611154,6.06395 l 0.115651,0.459016 0.266255,0.141182 c 1.612695,0.855134 2.796374,1.841032 3.772897,3.14248 1.925616,2.56634 2.570939,5.765649 1.791387,8.881158 -0.252188,1.007881 -0.796277,2.261958 -1.374879,3.168983 -1.391922,2.182 -3.552599,3.814903 -6.042898,4.566843 -0.394777,0.119202 -1.249775,0.31694 -1.370415,0.31694 -0.01976,0 -0.03592,-0.710999 -0.03592,-1.579997 v -1.579997 l 0.404705,-0.11485 c 1.29238,-0.36676 2.427359,-1.053184 3.392612,-2.051817 0.567023,-0.586635 0.948011,-1.109035 1.288843,-1.767229 0.331527,-0.64023 0.485598,-1.039831 0.651599,-1.690015 0.199948,-0.783136 0.244109,-1.222685 0.217123,-2.161119 -0.02522,-0.877142 -0.07123,-1.155301 -0.308551,-1.865707 C 47.97708,27.034892 46.77429,25.544241 45.171384,24.587842 44.976302,24.471443 44.436165,24.203214 43.971079,23.991776 43.31518,23.69359 43.120862,23.58753 43.104929,23.519022 43.093629,23.470442 43.009639,23.035905 42.918288,22.553376 42.684212,21.31702 42.477387,20.746747 41.995476,20.008942 41.723143,19.591999 40.95689,18.818848 40.53916,18.539515 38.990505,17.503941 37.231273,17.31955 35.236168,17.98369 c -0.546536,0.181933 -1.017447,0.412867 -2.541684,1.24644 -0.585246,0.320058 -1.07677,0.56989 -1.092274,0.555182 -0.01551,-0.01471 -0.243023,-0.655804 -0.505596,-1.424656 -0.262572,-0.768853 -0.53791,-1.543223 -0.611863,-1.720822 -0.152549,-0.366355 -0.48039,-0.906777 -0.829048,-1.366627 -0.312884,-0.412668 -1.098244,-1.198818 -1.594461,-1.596065 -1.279285,-1.024133 -2.937204,-1.83539 -4.324443,-2.116047 -0.603342,-0.122064 -1.75906,-0.184099 -2.397307,-0.12868 -1.018349,0.08842 -1.768221,0.298882 -2.686737,0.754053 -1.215251,0.602219 -2.108973,1.405643 -2.922522,2.627243 -0.991601,1.488957 -1.566942,3.127925 -1.72851,4.923994 -0.09198,1.022512 -0.05815,1.485798 0.214232,2.933998 0.09793,0.520639 0.155315,0.924144 0.134098,0.942845 -0.0204,0.01798 -0.637983,0.234312 -1.37241,0.480738 -1.964145,0.65904 -2.702597,1.049108 -3.6392761,1.922346 -1.6169068,1.507394 -2.4599377,3.761404 -2.2208248,5.937813 0.3421653,3.114393 2.5666886,5.663604 5.5784319,6.392649 l 0.385991,0.09344 v 1.581024 c 0,0.869562 -0.0047,1.579595 -0.01043,1.577851 -0.0057,-0.0017 -0.263934,-0.04748 -0.57377,-0.101639 z m 0.417287,-1.518449 v -1.414616 l -0.219076,-0.05156 C 10.735086,38.052586 8.9259639,36.692841 7.9158563,34.921373 6.6932952,32.777317 6.5918735,30.287599 7.637692,28.092941 c 0.7099918,-1.489924 1.8856868,-2.680513 3.382979,-3.425837 0.38869,-0.193482 0.852827,-0.364057 2.541177,-0.93391 0.344262,-0.116195 0.631605,-0.215558 0.63854,-0.220804 0.0069,-0.0052 -0.06408,-0.410722 -0.15781,-0.901055 -0.237371,-1.241766 -0.279604,-1.74962 -0.218039,-2.621926 0.152287,-2.15772 0.860272,-4.078788 2.115047,-5.739036 1.328486,-1.75778 3.291556,-2.83057 5.454613,-2.980872 0.690761,-0.048 1.767182,0.01616 2.39127,0.142521 2.736803,0.55414 5.710943,2.767116 6.781245,5.045738 0.108898,0.231839 0.402166,1.026945 0.651707,1.766904 0.24954,0.739958 0.469538,1.345547 0.488882,1.345752 0.01935,2.09e-4 0.625954,-0.320055 1.34802,-0.71169 1.333868,-0.723466 1.832412,-0.95218 2.487745,-1.14129 0.703648,-0.203053 1.077943,-0.251371 1.950226,-0.251757 0.714725,-3.33e-4 0.861934,0.01157 1.210134,0.09774 1.45167,0.359237 2.655006,1.199253 3.443469,2.403792 0.48301,0.737898 0.668018,1.247922 0.932713,2.571267 l 0.193117,0.965492 0.79963,0.363296 c 1.1219,0.509714 1.564568,0.779283 2.31869,1.412006 1.213552,1.018189 2.188194,2.646011 2.545004,4.250591 0.124568,0.560204 0.13606,2.120578 0.01993,2.705604 -0.305571,1.53926 -0.862137,2.703336 -1.841941,3.852485 -0.933047,1.09431 -2.291909,1.965196 -3.726554,2.388324 l -0.302533,0.08923 v 1.414713 1.414714 h 0.102527 c 0.164961,0 1.172526,-0.27104 1.670945,-0.449494 2.484998,-0.889723 4.594642,-2.733983 5.83437,-5.100432 1.058279,-2.020083 1.447358,-4.348046 1.087981,-6.509687 -0.350175,-2.10629 -1.307566,-4.008969 -2.787761,-5.540293 -0.828073,-0.856676 -1.798493,-1.576665 -2.766625,-2.052661 l -0.463381,-0.227829 -0.04866,-0.252052 c -0.477067,-2.471088 -2.232109,-4.715214 -4.56978,-5.843258 -2.477945,-1.195735 -5.490245,-1.092282 -7.820361,0.26858 -0.166287,0.09712 -0.306993,0.170204 -0.31268,0.162417 -0.0057,-0.0078 -0.07301,-0.18316 -0.149612,-0.389717 C 31.69235,12.306677 28.99418,9.8531118 25.703794,8.9513172 24.549295,8.634904 23.549556,8.5394734 21.988843,8.5967045 c -1.44276,0.052906 -2.343586,0.180143 -3.392259,0.47914 -3.810109,1.0863355 -6.254715,3.9789925 -7.141358,8.4502355 -0.187792,0.947013 -0.256928,1.652687 -0.280481,2.862891 l -0.02283,1.172876 -0.234677,0.07376 c -0.668788,0.210193 -1.6620993,0.70772 -2.3579995,1.181069 -0.9749266,0.663141 -1.9391806,1.603198 -2.5987644,2.533551 -2.2474358,3.170041 -2.5104447,7.378045 -0.6728982,10.76602 1.4700528,2.71041 3.9449471,4.546095 6.9806771,5.177729 0.252459,0.05253 0.501267,0.09673 0.552906,0.09823 l 0.09389,0.0027 z"
     id="path995" />
  <path
     style="fill:#8080f2;fill-opacity:1;stroke-width:0.00417288;stroke-linecap:round;stroke-linejoin:bevel;stroke-miterlimit:4;stroke-dasharray:none"
     d="M 12.497765,41.479971 C 10.757254,41.154997 9.1784,40.437908 7.8018113,39.347146 7.3317901,38.974718 6.4379953,38.061564 6.0876184,37.595824 4.9945659,36.142881 4.3461286,34.627844 4.0403381,32.812469 3.979716,32.452576 3.9644389,32.135681 3.9652473,31.254844 c 8.874e-4,-0.966954 0.013041,-1.173058 0.09679,-1.641323 0.5997724,-3.353531 2.6498456,-6.119098 5.6353861,-7.602188 0.2893681,-0.143746 0.6925706,-0.323821 0.8960056,-0.400166 0.203434,-0.07635 0.375998,-0.158243 0.383474,-0.181993 0.0075,-0.02375 0.03339,-0.559576 0.05758,-1.190724 0.04911,-1.281388 0.109044,-1.821864 0.316958,-2.85842 0.355511,-1.772399 1.031623,-3.425158 1.928959,-4.71535 0.323237,-0.464752 0.509531,-0.688283 0.9684,-1.161969 1.404739,-1.450095 3.136898,-2.3601904 5.328556,-2.7996798 0.903017,-0.1810804 1.318367,-0.2102816 2.997909,-0.2107684 1.76228,-5.107e-4 1.915358,0.013665 2.921013,0.2705039 1.637817,0.4182894 3.071038,1.1505177 4.338057,2.2163013 0.829817,0.698021 1.771661,1.795912 2.282709,2.660915 0.26533,0.449099 0.703375,1.327674 0.832007,1.668732 0.05507,0.146023 0.121576,0.274004 0.147784,0.284403 0.02621,0.0104 0.195209,-0.05515 0.375559,-0.145671 1.415306,-0.710344 2.504431,-0.973681 4.022579,-0.972607 0.863604,6.09e-4 1.297957,0.04732 1.990148,0.214027 1.539079,0.370667 2.908465,1.14147 4.038115,2.272986 1.114002,1.115841 1.871125,2.466655 2.275392,4.059622 l 0.09811,0.386602 0.440606,0.233109 c 0.937578,0.496045 1.890638,1.195211 2.610301,1.914924 2.962312,2.962517 3.890406,7.323736 2.38038,11.18563 -0.863118,2.207415 -2.270805,3.948089 -4.21625,5.213594 -1.092663,0.710772 -2.106966,1.150133 -3.377838,1.463159 -0.856447,0.210951 -0.772566,0.266016 -0.782783,-0.513873 -0.0047,-0.361475 -0.0094,-1.060229 -0.01043,-1.552784 l -0.0018,-0.895557 0.146051,-0.03811 c 2.753163,-0.71839 4.902374,-2.872983 5.585795,-5.599779 0.19946,-0.795817 0.227689,-1.091826 0.202172,-2.119954 -0.02526,-1.01807 -0.06447,-1.267795 -0.308275,-1.963683 -0.421841,-1.204041 -1.096862,-2.25198 -2.009307,-3.119369 -0.658513,-0.625994 -1.068712,-0.894435 -2.289047,-1.497992 -0.601084,-0.297285 -1.10446,-0.559255 -1.118613,-0.582156 -0.01415,-0.0229 -0.09137,-0.375014 -0.171591,-0.782475 -0.19326,-0.981605 -0.284656,-1.33404 -0.462653,-1.784058 -0.290726,-0.73502 -0.621908,-1.211121 -1.293786,-1.85992 -0.503908,-0.486599 -0.896333,-0.762891 -1.451943,-1.022263 -0.772095,-0.360431 -1.395352,-0.493006 -2.316135,-0.492672 -0.715287,2.51e-4 -1.163842,0.06449 -1.867294,0.267368 -0.689001,0.198714 -1.069522,0.371834 -2.523841,1.148231 -0.756389,0.403803 -1.397457,0.725666 -1.424596,0.715252 -0.02714,-0.01041 -0.178233,-0.392001 -0.335764,-0.847972 -0.822061,-2.379432 -0.877448,-2.508933 -1.416474,-3.311898 -0.396783,-0.591071 -1.480606,-1.680923 -2.154833,-2.166819 -1.252218,-0.902438 -2.71241,-1.585437 -3.928532,-1.837556 -1.123133,-0.232841 -2.634736,-0.214661 -3.644207,0.04383 -1.298362,0.332465 -2.510792,1.017033 -3.413128,1.927136 -1.60219,1.615982 -2.664666,4.131784 -2.777348,6.576393 -0.0367,0.796285 -0.0012,1.25037 0.175687,2.249997 0.08007,0.452386 0.158196,0.918187 0.173607,1.035113 l 0.02802,0.212594 -0.515693,0.176619 c -1.938297,0.663845 -2.287957,0.796512 -2.882801,1.093785 -0.742185,0.370905 -1.1900725,0.701458 -1.8377471,1.356307 -0.9730497,0.983828 -1.6297273,2.236599 -1.9182586,3.659542 -0.081256,0.400727 -0.094226,0.591421 -0.09271,1.363076 0.00152,0.772252 0.014947,0.957932 0.096453,1.333587 0.3340881,1.539785 0.9985302,2.785959 2.0427829,3.831279 0.9531788,0.954153 2.1171138,1.607706 3.4715198,1.949267 l 0.354695,0.08945 7.63e-4,1.040533 c 0.0013,1.734752 -0.01424,2.063574 -0.09711,2.058959 -0.03881,-0.0022 -0.248962,-0.03724 -0.466995,-0.07795 z m 0.407403,-1.510158 -0.01098,-1.425121 -0.361344,-0.09591 c -2.25945,-0.599724 -4.2014553,-2.33308 -5.0638204,-4.519764 -0.3947974,-1.001081 -0.5481117,-1.902916 -0.5078222,-2.98714 0.035944,-0.96728 0.2269055,-1.78013 0.6323109,-2.691505 0.669175,-1.504345 1.902363,-2.789923 3.4027637,-3.547323 0.348613,-0.175978 0.572127,-0.260149 1.994003,-0.750896 0.649571,-0.224193 1.192647,-0.419233 1.206836,-0.433422 0.01419,-0.01419 -0.04263,-0.40597 -0.12627,-0.870625 -0.228907,-1.271713 -0.251494,-1.50731 -0.225024,-2.347064 0.0275,-0.872432 0.09863,-1.392413 0.305381,-2.232489 0.450735,-1.83142 1.414075,-3.55333 2.650057,-4.73681 1.305696,-1.250232 2.965042,-1.959933 4.791827,-2.049459 0.94346,-0.04624 2.071904,0.08383 2.911166,0.335553 1.15096,0.345208 2.545666,1.092506 3.60007,1.928955 0.480093,0.380853 1.383518,1.293123 1.702292,1.718958 0.588027,0.785516 0.778538,1.197926 1.473047,3.188794 0.214169,0.613935 0.408941,1.116245 0.432826,1.116245 0.02389,0 0.578526,-0.284228 1.232535,-0.631617 1.749117,-0.929078 2.156705,-1.10504 3.046036,-1.315021 0.60218,-0.142181 1.971829,-0.187493 2.490521,-0.08239 1.966631,0.398491 3.615856,1.811202 4.228124,3.621775 0.08794,0.260056 0.246472,0.894337 0.352291,1.409513 0.105819,0.515176 0.196899,0.941185 0.2024,0.946687 0.0055,0.0055 0.225574,0.107192 0.489049,0.225979 1.430061,0.644739 2.100392,1.059209 2.886049,1.784461 0.986388,0.910553 1.888585,2.455106 2.228879,3.815828 0.09228,0.368997 0.110051,0.55019 0.129918,1.324638 0.03042,1.185987 -0.05574,1.803807 -0.389567,2.79361 -0.390903,1.159009 -1.273812,2.49203 -2.171978,3.279266 -0.880018,0.771326 -1.757517,1.274804 -2.871915,1.647803 l -0.459017,0.153636 -0.01098,1.424989 -0.01098,1.424988 0.136166,-1.25e-4 c 0.07489,-8.4e-5 0.382078,-0.06507 0.682637,-0.144429 1.912497,-0.505 3.461239,-1.387242 4.837325,-2.755588 1.042384,-1.036523 1.781004,-2.116049 2.326917,-3.400894 1.153612,-2.715108 1.137547,-5.690974 -0.04502,-8.33939 -0.949146,-2.125664 -2.668338,-3.941754 -4.724564,-4.990859 l -0.522357,-0.26651 -0.05578,-0.305943 c -0.08307,-0.45564 -0.385776,-1.342056 -0.628287,-1.839851 -1.100184,-2.258313 -3.114368,-3.909209 -5.510496,-4.516596 -0.727653,-0.184451 -1.253242,-0.245884 -2.107964,-0.246388 -1.479751,-8.72e-4 -2.693208,0.298452 -3.974763,0.98046 -0.468014,0.249063 -0.469678,0.249567 -0.509307,0.154243 -0.02187,-0.0526 -0.135617,-0.332817 -0.252776,-0.622706 C 31.979828,13.230383 30.582791,11.536271 28.834575,10.36981 27.44306,9.4413506 25.838049,8.8384695 24.2306,8.6404459 22.911079,8.4778924 20.624335,8.5864735 19.345098,8.8724235 16.51209,9.5056907 14.420711,10.958732 13.021842,13.265676 c -1.153324,1.902004 -1.855775,4.546547 -1.858737,6.99766 -3.76e-4,0.300573 -0.01268,0.715781 -0.02736,0.922685 l -0.0267,0.376189 -0.234102,0.0718 c -0.604411,0.185377 -1.6855953,0.731531 -2.341405,1.182747 -2.0560963,1.414652 -3.4987407,3.448914 -4.1314439,5.825715 -0.2274704,0.854511 -0.2980752,1.38288 -0.321205,2.403727 -0.030434,1.343234 0.096328,2.234514 0.4866592,3.421758 0.8947372,2.721463 2.8601958,4.927602 5.4379557,6.103861 0.85558,0.390411 2.265143,0.810143 2.753619,0.819958 l 0.157031,0.0032 -0.01098,-1.42512 z"
     id="path997" />
  <path
     style="fill:#8080f2;fill-opacity:1;stroke-width:0.000737667;stroke-linecap:round;stroke-linejoin:bevel;stroke-miterlimit:4;stroke-dasharray:none"
     d="m 31.490017,18.999854 c -0.07402,-0.210141 -0.156897,-0.450112 -0.269846,-0.781322 -0.319014,-0.935474 -0.551281,-1.55725 -0.683386,-1.829415 -0.336444,-0.693154 -0.838333,-1.373642 -1.507456,-2.043889 -0.44231,-0.443055 -0.859668,-0.797274 -1.387023,-1.177193 -0.82011,-0.590825 -1.765691,-1.09632 -2.644537,-1.413734 -0.675941,-0.244131 -1.232725,-0.375361 -1.866539,-0.43993 -0.802915,-0.0818 -1.527881,-0.0847 -2.140839,-0.0086 -0.114855,0.01426 -0.156754,0.01713 -0.156754,0.01072 0,-0.0048 0.0091,-0.01056 0.02029,-0.01279 0.02598,-0.0052 0.248807,-0.03188 0.311664,-0.03736 0.223819,-0.01949 0.826058,-0.03394 1.073306,-0.02575 0.697276,0.0231 0.790804,0.0293 1.110189,0.07355 1.47219,0.203999 3.121954,0.936054 4.551407,2.019608 0.515575,0.390816 1.011748,0.844506 1.494006,1.366086 0.353006,0.381789 0.720059,0.877265 0.967252,1.305671 0.207625,0.359831 0.340038,0.65696 0.493106,1.106501 0.09076,0.266539 0.546622,1.599693 0.616645,1.803343 0.03622,0.105347 0.06481,0.194702 0.06352,0.198565 -0.0013,0.0039 -0.02154,-0.04748 -0.045,-0.114085 z"
     id="path1005" />
  <path
     style="fill:#8080f2;fill-opacity:1;stroke-width:0.000737667;stroke-linecap:round;stroke-linejoin:bevel;stroke-miterlimit:4;stroke-dasharray:none"
     d="m 31.489086,19.478099 c -0.02762,-0.07533 -0.215058,-0.613879 -0.361369,-1.038267 -0.399149,-1.157769 -0.558594,-1.604152 -0.646198,-1.809101 -0.208631,-0.488088 -0.630387,-1.145568 -1.035129,-1.613675 -0.299022,-0.345834 -0.81199,-0.85513 -1.182027,-1.173562 -1.150977,-0.990465 -2.806372,-1.860752 -4.207731,-2.212122 -0.651001,-0.163229 -1.387765,-0.229406 -2.374678,-0.213295 -0.303369,0.005 -0.41941,0.01325 -0.713762,0.05105 -0.06214,0.008 -0.117958,0.01451 -0.12403,0.01451 -0.0092,0 -0.0107,-0.01246 -0.0089,-0.07561 l 0.0021,-0.07561 0.08997,-0.01221 c 0.32377,-0.04393 0.591629,-0.0603 0.987027,-0.06034 0.544975,-5.1e-5 1.020344,0.03013 1.501153,0.09531 0.3284,0.04452 0.634203,0.110957 1.010605,0.21957 1.88677,0.544441 3.871179,1.846662 5.155692,3.383301 0.480152,0.574397 0.855995,1.174821 1.068956,1.7077 0.120196,0.300761 0.348675,0.928041 0.505129,1.386815 0.311963,0.914772 0.469582,1.358126 0.475996,1.338886 0.0048,-0.01454 -0.0047,-0.04288 -0.580273,-1.726162 -0.306924,-0.89758 -0.359015,-1.035059 -0.502479,-1.326148 -0.2609,-0.529367 -0.652378,-1.0933 -1.114851,-1.605968 -0.216209,-0.239676 -0.637306,-0.655967 -0.895675,-0.885454 -1.4765,-1.311445 -3.41405,-2.272874 -5.089905,-2.525654 -0.334737,-0.05049 -0.401269,-0.05589 -1.021669,-0.08293 -0.216725,-0.0094 -0.837574,-0.0048 -1.058552,0.008 -0.199277,0.0115 -0.414368,0.03233 -0.510835,0.04947 l -0.02397,0.0043 v -0.07828 -0.07828 h 4.485776 4.485777 l 0.05272,0.04529 c 0.37556,0.322604 0.837249,0.790868 1.169958,1.186617 0.444162,0.528319 0.864431,1.138207 1.172107,1.700942 l 0.05277,0.09652 -0.0019,2.54731 -0.0019,2.54731 -0.179736,0.09783 c -0.266969,0.14531 -0.249986,0.147624 0.03205,0.0044 0.07717,-0.0392 0.142798,-0.07237 0.145841,-0.07373 0.003,-0.0014 0.0055,0.03591 0.0055,0.0828 v 0.08526 l -0.02176,0.01125 c -0.03172,0.0164 -0.560994,0.01699 -0.560994,6.27e-4 0,-0.0058 -0.0037,-0.0129 -0.0082,-0.01568 -0.0055,-0.0034 -0.0065,8.1e-5 -0.0032,0.01063 0.0049,0.01537 0.0033,0.01568 -0.08058,0.01568 -0.06173,0 -0.0865,-0.0026 -0.08894,-0.0092 z"
     id="path1007" />
  <path
     style="fill:#8080f2;fill-opacity:1;stroke-width:0.000390625;stroke-linecap:round;stroke-linejoin:bevel;stroke-miterlimit:4;stroke-dasharray:none"
     d=""
     id="path1009" />
  <path
     style="fill:#8080f2;fill-opacity:1;stroke-width:0.000390625;stroke-linecap:round;stroke-linejoin:bevel;stroke-miterlimit:4;stroke-dasharray:none"
     d="m 29.539493,14.893169 c -0.228378,-0.271336 -0.58511,-0.637086 -0.908203,-0.931161 -0.476836,-0.434012 -1.053496,-0.867267 -1.632812,-1.226763 -0.675756,-0.41934 -1.382517,-0.763873 -2.058594,-1.003526 -0.09022,-0.03198 -0.09141,-0.03254 -0.06904,-0.03271 0.01907,-1.42e-4 0.03772,0.0053 0.115235,0.03352 0.38752,0.141193 0.720696,0.285087 1.10615,0.477732 1.046207,0.522882 2.026906,1.219431 2.83548,2.013923 0.230586,0.22657 0.437395,0.442131 0.578096,0.602561 0.05212,0.05943 0.05908,0.06898 0.05908,0.08105 0,0.0075 -4.4e-4,0.01358 -9.77e-4,0.01345 -5.37e-4,-1.32e-4 -0.01152,-0.01277 -0.02441,-0.02809 z"
     id="path1011" />
  <path
     style="fill:#8080f2;fill-opacity:1;stroke-width:0.000390625;stroke-linecap:round;stroke-linejoin:bevel;stroke-miterlimit:4;stroke-dasharray:none"
     d="m 29.523228,14.834611 c -0.193073,-0.220691 -0.524717,-0.559507 -0.798204,-0.815468 -0.951322,-0.890354 -2.17339,-1.669216 -3.392562,-2.162186 -0.12265,-0.04959 -0.184191,-0.0733 -0.320312,-0.123401 l -0.09375,-0.0345 2.323242,-1.05e-4 2.323242,-1.05e-4 v 1.589844 c 0,0.874414 -7.28e-4,1.589844 -0.0016,1.589844 -8.89e-4,0 -0.01891,-0.01976 -0.04004,-0.04392 z"
     id="path1013" />
  <path
     style="fill:#8080f2;fill-opacity:1;stroke-width:0.000390625;stroke-linecap:round;stroke-linejoin:bevel;stroke-miterlimit:4;stroke-dasharray:none"
     d="m 29.533634,15.155288 c -0.04653,-0.05777 -0.152661,-0.182692 -0.220188,-0.259181 -0.234007,-0.265061 -0.548446,-0.580804 -0.82287,-0.826282 -0.64731,-0.579032 -1.371469,-1.089598 -2.142489,-1.510557 -0.04727,-0.02581 -0.0971,-0.05253 -0.110747,-0.0594 -0.01365,-0.0069 -0.02384,-0.01344 -0.02266,-0.01462 0.0037,-0.0037 0.199311,0.101355 0.381458,0.204956 0.617263,0.351084 1.246403,0.789883 1.688492,1.177651 0.225109,0.197449 0.378633,0.342544 0.649872,0.614191 0.245308,0.245676 0.438151,0.45154 0.559854,0.597656 0.0719,0.08632 0.07125,0.0854 0.06984,0.09946 -0.0012,0.01236 -0.0016,0.0121 -0.03055,-0.02388 z"
     id="path1015" />
  <path
     style="fill:#8080f2;fill-opacity:1;stroke-width:0.000390625;stroke-linecap:round;stroke-linejoin:bevel;stroke-miterlimit:4;stroke-dasharray:none"
     d=""
     id="path1017" />
  <path
     style="fill:#8080f2;fill-opacity:1;stroke-width:0.000390625;stroke-linecap:round;stroke-linejoin:bevel;stroke-miterlimit:4;stroke-dasharray:none"
     d="M 29.503802,14.813115 C 29.256746,14.534762 28.886189,14.162969 28.5844,13.890649 27.877994,13.25322 27.004544,12.659321 26.119122,12.214393 25.727825,12.017764 25.359,11.858961 24.945743,11.709179 l -0.02734,-0.0099 2.323242,-2.13e-4 2.323242,-2.14e-4 v 1.589844 c 0,0.874414 -6.8e-4,1.589844 -0.0015,1.589844 -8.32e-4,0 -0.02764,-0.02944 -0.05957,-0.06541 z"
     id="path1019" />
  <path
     style="fill:#8080f2;fill-opacity:1;stroke-width:0.000390625;stroke-linecap:round;stroke-linejoin:bevel;stroke-miterlimit:4;stroke-dasharray:none"
     d=""
     id="path1021" />
  <path
     style="fill:#8080f2;fill-opacity:1;stroke-width:0.000390625;stroke-linecap:round;stroke-linejoin:bevel;stroke-miterlimit:4;stroke-dasharray:none"
     d=""
     id="path1023" />
  <path
     style="fill:#8080f2;fill-opacity:1;stroke-width:0.000390625;stroke-linecap:round;stroke-linejoin:bevel;stroke-miterlimit:4;stroke-dasharray:none"
     d=""
     id="path1025" />
  <path
     style="fill:#8080f2;fill-opacity:1;stroke-width:0.000390625;stroke-linecap:round;stroke-linejoin:bevel;stroke-miterlimit:4;stroke-dasharray:none"
     d=""
     id="path1027" />
  <path
     style="fill:#8080f2;fill-opacity:1;stroke-width:0.000390625;stroke-linecap:round;stroke-linejoin:bevel;stroke-miterlimit:4;stroke-dasharray:none"
     d="m 29.53754,14.8911 c -0.256037,-0.301377 -0.648233,-0.699372 -0.984375,-0.998928 -0.47053,-0.419318 -1.053654,-0.850526 -1.60981,-1.190422 -0.667539,-0.407968 -1.323602,-0.72591 -1.993705,-0.966195 -0.09866,-0.03538 -0.100921,-0.03642 -0.07912,-0.03657 0.02438,-1.6e-4 0.06415,0.01289 0.231463,0.07594 0.840054,0.316594 1.682088,0.766728 2.46875,1.319743 0.03652,0.02568 0.0686,0.04841 0.07129,0.05051 0.0034,0.0027 0.0048,0.0022 0.0048,-0.0015 -6.8e-5,-0.0029 -0.01276,-0.01415 -0.0282,-0.02489 -0.01544,-0.01074 -0.06065,-0.04222 -0.100462,-0.06995 -0.639254,-0.445294 -1.338301,-0.833251 -2.031368,-1.127368 -0.165786,-0.07035 -0.307116,-0.125852 -0.525391,-0.206309 l -0.04297,-0.01584 2.323242,-2.27e-4 2.323242,-2.27e-4 v 0.720704 0.720703 h -0.956905 c -0.942727,0 -0.956864,1.11e-4 -0.954102,0.0075 0.0015,0.0041 0.05027,0.04243 0.108282,0.0851 0.564198,0.414991 1.085248,0.882176 1.595786,1.43082 0.09283,0.09976 0.190932,0.20933 0.201725,0.22531 0.0032,0.0047 0.0052,0.0138 0.0045,0.02025 -0.0012,0.01157 -0.0016,0.01131 -0.02663,-0.01815 z"
     id="path1029" />
  <path
     style="fill:#8080f2;fill-opacity:1;stroke-width:0.000390625;stroke-linecap:round;stroke-linejoin:bevel;stroke-miterlimit:4;stroke-dasharray:none"
     d="m 29.498478,14.846508 c -0.272386,-0.315413 -0.667301,-0.710925 -1.007813,-1.009333 -0.484959,-0.424996 -1.060566,-0.843206 -1.636408,-1.188942 -0.287673,-0.172719 -0.513564,-0.296423 -0.815513,-0.446598 -0.374501,-0.186259 -0.694156,-0.323293 -1.073469,-0.460191 -0.112347,-0.04055 -0.116272,-0.0423 -0.09502,-0.04245 0.02389,-1.67e-4 0.06563,0.01336 0.220023,0.0713 0.845629,0.317368 1.718108,0.783701 2.488281,1.329966 0.03652,0.02591 0.06719,0.04633 0.06814,0.04539 0.0034,-0.0034 -0.01456,-0.01712 -0.101345,-0.0777 -0.801157,-0.55922 -1.657779,-1.011587 -2.508279,-1.324578 l -0.115701,-0.04258 2.32045,-9.8e-4 c 1.276248,-5.39e-4 2.32104,-3.91e-4 2.32176,3.3e-4 7.21e-4,7.21e-4 8.69e-4,0.716461 3.28e-4,1.590534 l -9.8e-4,1.589225 -0.06051,-0.06807 C 29.299214,14.58323 29.00134,14.279405 28.736758,14.03087 28.520607,13.82783 28.259177,13.604382 28.022136,13.420074 27.89607,13.322052 27.692371,13.169814 27.660587,13.149863 l -0.01172,-0.0074 0.0078,0.0091 c 0.0043,0.005 0.04999,0.04007 0.101539,0.07797 0.535004,0.393342 1.01558,0.819333 1.507737,1.336487 0.140524,0.147661 0.285661,0.307632 0.296214,0.32649 0.0018,0.0031 0.0026,0.01087 0.002,0.01717 -0.0011,0.01064 -0.0058,0.0061 -0.06567,-0.06318 z"
     id="path1031" />
  <path
     style="fill:#8080f2;fill-opacity:1;stroke-width:0.000390625;stroke-linecap:round;stroke-linejoin:bevel;stroke-miterlimit:4;stroke-dasharray:none"
     d="M 29.535587,14.889623 C 29.296252,14.60873 28.952021,14.255918 28.63574,13.967344 28.167897,13.540486 27.592404,13.10668 27.021915,12.750845 26.348467,12.33079 25.659101,11.992274 24.972096,11.744272 c -0.06176,-0.02229 -0.114927,-0.0415 -0.11815,-0.04268 -0.0032,-0.0012 0.0041,-0.0023 0.01617,-0.0024 0.02499,-3.5e-4 0.05422,0.009 0.214301,0.06885 0.830726,0.310364 1.674451,0.75874 2.456055,1.305209 0.05855,0.04093 0.106445,0.07293 0.106445,0.0711 0,-0.01237 -0.368692,-0.261454 -0.612459,-0.413775 -0.314728,-0.19666 -0.715539,-0.420214 -0.999016,-0.557205 -0.03429,-0.01657 -0.0896,-0.04328 -0.1229,-0.05936 -0.257304,-0.124188 -0.549276,-0.248255 -0.833984,-0.354381 -0.07305,-0.02723 -0.138965,-0.05195 -0.146485,-0.05493 -0.01168,-0.0046 0.324006,-0.0054 2.309571,-0.0056 l 2.323242,-2.02e-4 v 1.589844 c 0,0.874414 -6.82e-4,1.589844 -0.0015,1.589844 -8.34e-4,0 -0.0375,-0.04006 -0.08148,-0.08902 -0.249246,-0.277488 -0.576356,-0.606057 -0.86434,-0.868194 -0.270654,-0.246363 -0.5853,-0.501961 -0.892509,-0.725018 -0.07214,-0.05238 -0.07673,-0.05546 -0.07256,-0.04871 0.0016,0.0025 0.07172,0.0562 0.155877,0.119213 0.299429,0.224219 0.532569,0.415153 0.789732,0.646765 0.306059,0.27565 0.67855,0.650678 0.923525,0.929815 0.0411,0.04683 0.04408,0.05147 0.04256,0.06624 -0.0012,0.01201 -0.0015,0.01186 -0.02859,-0.01999 z"
     id="path1033" />
  <path
     style="fill:#8080f2;fill-opacity:1;stroke-width:0.000390625;stroke-linecap:round;stroke-linejoin:bevel;stroke-miterlimit:4;stroke-dasharray:none"
     d="m 29.508737,14.858867 c -0.239765,-0.27839 -0.59617,-0.640726 -0.906857,-0.921944 -0.357606,-0.323687 -0.769733,-0.644862 -1.228402,-0.957305 -0.517434,-0.352473 -1.1426,-0.701497 -1.716797,-0.95847 -0.235113,-0.105221 -0.427536,-0.183047 -0.681641,-0.275692 -0.12027,-0.04385 -0.125812,-0.04629 -0.105286,-0.04645 0.02518,-1.91e-4 0.06048,0.0111 0.212708,0.06805 0.835434,0.312533 1.663553,0.752394 2.456381,1.304724 0.05765,0.04016 0.105686,0.07216 0.106746,0.07109 0.0036,-0.0036 -0.209209,-0.151798 -0.365074,-0.254234 -0.724109,-0.47589 -1.462112,-0.853559 -2.217584,-1.134838 -0.06445,-0.024 -0.12334,-0.04609 -0.13086,-0.0491 -0.01174,-0.0047 0.315084,-0.0055 2.309571,-0.0057 l 2.323242,-2.02e-4 v 1.589844 c 0,0.874414 -7.51e-4,1.589844 -0.0017,1.589844 -9.18e-4,0 -0.03122,-0.03296 -0.06734,-0.07324 -0.210636,-0.234908 -0.498017,-0.528099 -0.74758,-0.762696 -0.308476,-0.289976 -0.634209,-0.560407 -0.987796,-0.820091 -0.0871,-0.06397 -0.105769,-0.07684 -0.105769,-0.07294 0,9.74e-4 0.05581,0.04351 0.124023,0.09453 0.424225,0.317279 0.741989,0.586394 1.108211,0.938547 0.203673,0.195849 0.535411,0.542084 0.649107,0.677473 0.02367,0.02819 0.02881,0.03673 0.02881,0.04785 0,0.0074 -4.97e-4,0.01354 -0.0011,0.01354 -6.07e-4,0 -0.02538,-0.02818 -0.05504,-0.06263 z"
     id="path1035" />
  <path
     style="fill:#8080f2;fill-opacity:1;stroke-width:0.000390625;stroke-linecap:round;stroke-linejoin:bevel;stroke-miterlimit:4;stroke-dasharray:none"
     d="M 29.533634,10.698364 C 29.404543,10.594783 29.118917,10.387985 28.9184,10.252925 27.88168,9.554637 26.714331,9.036449 25.484292,8.7285201 24.718324,8.536767 24.334318,8.4797408 23.675235,8.4598686 l -0.157226,-0.00474 v -0.022675 c 0,-0.01998 9.17e-4,-0.022674 0.0077,-0.022674 0.0042,0 0.04687,0.00267 0.09473,0.00594 1.688603,0.1152926 3.311759,0.6167557 4.770601,1.4738444 0.372615,0.218916 0.754801,0.476486 1.100586,0.741726 l 0.07324,0.05618 v 0.0174 c 0,0.0096 -4.4e-4,0.01731 -9.77e-4,0.0172 -5.37e-4,-1.12e-4 -0.01416,-0.01078 -0.03027,-0.02371 z"
     id="path1037" />
  <path
     style="fill:#8080f2;fill-opacity:1;stroke-width:0.000390625;stroke-linecap:round;stroke-linejoin:bevel;stroke-miterlimit:4;stroke-dasharray:none"
     d="M 29.486759,10.875945 C 29.209234,10.65518 28.851128,10.402819 28.540906,10.209392 28.071263,9.9165647 27.590093,9.6646496 27.094233,9.4519896 26.013156,8.988348 24.887254,8.7114061 23.706069,8.6185923 c -0.04373,-0.00344 -0.08329,-0.0078 -0.08789,-0.0097 -0.0057,-0.00236 -0.0016,-0.00289 0.01311,-0.00168 0.01182,9.791e-4 0.05049,0.00362 0.08594,0.00587 0.385136,0.02443 0.824545,0.08141 1.206319,0.1564276 1.480816,0.2909783 2.880763,0.8897554 4.11204,1.7587771 0.224817,0.158674 0.529297,0.390694 0.529297,0.403336 0,0.003 -4.4e-4,0.0054 -9.77e-4,0.0052 -5.37e-4,-1.61e-4 -0.03525,-0.02756 -0.07715,-0.06089 z"
     id="path1039" />
  <path
     style="fill:#8080f2;fill-opacity:1;stroke-width:0.000390625;stroke-linecap:round;stroke-linejoin:bevel;stroke-miterlimit:4;stroke-dasharray:none"
     d="M 24.961368,11.716177 C 24.797031,11.653997 24.472033,11.551925 24.248478,11.492279 24.022964,11.43211 23.7259,11.367186 23.548282,11.33925 l -0.03027,-0.0048 V 9.8975243 8.4605602 l 0.04395,1.59e-5 c 0.06203,2.24e-5 0.250875,0.00684 0.379883,0.013716 0.490916,0.026162 0.861849,0.088264 1.541016,0.2579972 0.968916,0.2421461 1.894247,0.6130044 2.758652,1.1056249 0.429077,0.2445288 0.84412,0.5207388 1.242324,0.8267638 l 0.08105,0.06229 v 0.09531 c 0,0.05242 -10e-4,0.09531 -0.0022,0.09531 -0.0012,0 -0.01837,-0.0129 -0.03809,-0.02867 -0.345342,-0.27613 -0.782383,-0.577726 -1.176478,-0.811873 C 27.390092,9.5078694 26.382765,9.1011085 25.303165,8.8475044 24.876033,8.7471686 24.469304,8.6791862 24.041446,8.6366153 23.837233,8.6162964 23.618908,8.600673 23.610635,8.6057862 c -0.0076,0.00473 0.01297,0.010022 0.05007,0.012857 0.913454,0.069783 1.749089,0.2369026 2.597535,0.5194832 1.174455,0.3911601 2.273286,0.9855686 3.24549,1.7556356 l 0.06115,0.04844 v 0.399806 0.399805 l -2.268555,-2.53e-4 -2.268554,-2.54e-4 -0.06641,-0.02513 z"
     id="path1041" />
  <path
     style="fill:#8080f2;fill-opacity:1;stroke-width:0.000390625;stroke-linecap:round;stroke-linejoin:bevel;stroke-miterlimit:4;stroke-dasharray:none"
     d="m 24.955509,11.714276 c -0.0934,-0.03504 -0.314951,-0.108478 -0.439453,-0.145666 -0.322688,-0.09638 -0.628164,-0.169632 -0.924805,-0.221751 l -0.07324,-0.01287 V 9.8972754 8.4605602 l 0.04785,4.3e-6 c 0.187602,1.67e-5 0.548885,0.021329 0.764649,0.045107 0.31494,0.034708 0.710902,0.1132812 1.203125,0.2387442 0.953388,0.2430101 1.869406,0.6137876 2.724609,1.1028437 0.42542,0.2432796 0.87107,0.5412296 1.249024,0.8350626 l 0.05762,0.04479 v 0.09524 c 0,0.05238 -9.84e-4,0.09524 -0.0022,0.09524 -0.0012,0 -0.03419,-0.02522 -0.0733,-0.05605 -0.566965,-0.446859 -1.183153,-0.837019 -1.84278,-1.1668179 -0.14678,-0.073387 -0.161552,-0.080522 -0.296574,-0.1432514 -0.967225,-0.449363 -2.055427,-0.763327 -3.083984,-0.8897804 -0.283374,-0.034839 -0.664268,-0.065666 -0.656524,-0.053135 0.0033,0.00537 0.02014,0.00749 0.127227,0.01606 1.636344,0.1309384 3.216756,0.6363457 4.623107,1.4784437 0.39083,0.234023 0.7854,0.50643 1.133729,0.782713 l 0.07129,0.05654 v 0.399746 0.399747 l -2.268555,-2.11e-4 -2.268554,-2.11e-4 z"
     id="path1043" />
  <path
     style="fill:#8080f2;fill-opacity:1;stroke-width:0.000390625;stroke-linecap:round;stroke-linejoin:bevel;stroke-miterlimit:4;stroke-dasharray:none"
     d=""
     id="path1045" />
  <path
     style="fill:#8080f2;fill-opacity:1;stroke-width:0.000390625;stroke-linecap:round;stroke-linejoin:bevel;stroke-miterlimit:4;stroke-dasharray:none"
     d="m 23.94965,11.419218 c -0.0512,-0.01239 -0.313704,-0.06512 -0.379883,-0.0763 l -0.05176,-0.0087 V 9.8973667 8.4605602 l 0.05371,2.67e-5 c 0.0609,3.03e-5 0.227425,0.00579 0.34082,0.01178 0.496166,0.026227 0.822719,0.078161 1.462082,0.2325247 1.025205,0.2475192 1.970585,0.6214904 2.875809,1.1376058 0.426182,0.2429886 0.879832,0.5463196 1.264648,0.8456016 l 0.0498,0.03874 v 0.09538 c 0,0.05246 -9.38e-4,0.09538 -0.0021,0.09538 -0.0011,0 -0.04641,-0.03463 -0.100586,-0.07697 C 28.400798,10.011271 27.184218,9.3845922 25.900821,9.0060979 25.200889,8.7996765 24.539551,8.6752954 23.842228,8.618928 23.683399,8.606089 23.604504,8.602619 23.610218,8.608724 c 0.0047,0.00502 0.024,0.00717 0.196853,0.021923 1.76821,0.1508962 3.483346,0.7494009 4.965076,1.732586 0.25801,0.1712 0.462621,0.319024 0.70387,0.508523 l 0.08887,0.0698 v 0.243875 0.243875 l -2.788086,-3.19e-4 -2.788086,-3.19e-4 -0.03906,-0.0095 z"
     id="path1047" />
  <path
     style="fill:#8080f2;fill-opacity:1;stroke-width:0.000390625;stroke-linecap:round;stroke-linejoin:bevel;stroke-miterlimit:4;stroke-dasharray:none"
     d="m 23.982527,11.427694 c -0.0053,-0.0053 -0.328813,-0.07072 -0.436198,-0.08822 l -0.02832,-0.0046 V 9.8970783 8.4593022 l 0.118164,0.0026 c 0.482532,0.0106 0.869262,0.052331 1.276367,0.1377307 0.352867,0.074022 0.708387,0.1626495 1.017578,0.2536721 1.28687,0.3788405 2.512576,1.0045088 3.567383,1.820988 l 0.06738,0.05216 v 0.09557 c 0,0.05257 -9.67e-4,0.09557 -0.0021,0.09557 -0.0012,0 -0.04117,-0.03046 -0.08887,-0.0677 C 28.576787,10.14956 27.590314,9.6007831 26.53754,9.2164093 25.784006,8.9412895 24.976427,8.7456141 24.232853,8.6579864 c -0.264651,-0.031188 -0.626139,-0.060312 -0.619721,-0.049928 0.0036,0.00575 0.01759,0.00756 0.129486,0.016726 0.674773,0.055281 1.31586,0.1676657 1.957568,0.3431678 1.374965,0.3760421 2.669487,1.0295927 3.786573,1.9116828 l 0.07617,0.06015 0.001,0.244764 10e-4,0.244763 h -2.790394 c -1.534717,0 -2.791127,-7.27e-4 -2.792022,-0.0016 z"
     id="path1049" />
  <path
     style="fill:#8080f2;fill-opacity:1;stroke-width:0.000390625;stroke-linecap:round;stroke-linejoin:bevel;stroke-miterlimit:4;stroke-dasharray:none"
     d="m 23.955509,11.421221 c -0.06888,-0.01711 -0.416521,-0.08566 -0.434408,-0.08566 -0.0017,0 -0.0031,-0.646875 -0.0031,-1.4374998 v -1.4375 l 0.06348,1.7e-6 c 0.123512,3.3e-6 0.402679,0.013429 0.57129,0.027474 0.390594,0.032536 0.749651,0.097974 1.320312,0.2406257 1.485669,0.3713827 2.861933,1.0401228 4.060547,1.9730584 l 0.0293,0.0228 10e-4,0.09653 c 5.74e-4,0.05309 -3e-6,0.09653 -0.0013,0.09653 -0.0013,0 -0.04482,-0.03306 -0.09675,-0.07347 C 28.359875,9.9834249 27.13057,9.3569232 25.807934,8.9798545 25.10475,8.7793845 24.46643,8.6652526 23.75629,8.6130199 c -0.119386,-0.00878 -0.146025,-0.0096 -0.142804,-0.00439 0.0029,0.00474 0.01958,0.00669 0.154523,0.018091 1.776316,0.1501306 3.452124,0.7244991 4.939453,1.6929551 0.25227,0.164263 0.557408,0.383581 0.787109,0.565736 l 0.06836,0.05421 0.001,0.244843 0.001,0.244843 -2.790069,-4.06e-4 c -2.707841,-3.94e-4 -2.790932,-6.2e-4 -2.819365,-0.0077 z"
     id="path1051" />
  <path
     style="fill:#8080f2;fill-opacity:1;stroke-width:0.000390625;stroke-linecap:round;stroke-linejoin:bevel;stroke-miterlimit:4;stroke-dasharray:none"
     d=""
     id="path1053" />
  <path
     style="fill:#8080f2;fill-opacity:1;stroke-width:0.00039063;stroke-linecap:round;stroke-linejoin:bevel;stroke-miterlimit:4;stroke-dasharray:none"
     d="M 27.914493,9.8449293 C 27.27333,9.5004643 26.55985,9.2099832 25.853946,9.0060135 25.193066,8.815053 24.546501,8.6939313 23.830509,8.6269605 c -0.03115,-0.00291 -0.04873,-0.0055 -0.03906,-0.00574 0.05517,-0.00139 0.394454,0.03415 0.613282,0.064239 0.85385,0.1174045 1.760034,0.3678586 2.589843,0.7157896 0.225748,0.094654 0.410679,0.1796528 0.644532,0.2962432 0.159613,0.079577 0.375677,0.1924722 0.38457,0.2009411 0.0099,0.00947 -0.01176,-0.00116 -0.10918,-0.053503 z"
     id="path1055" />
  <g
     id="g10285"
     transform="matrix(1.0758728,0,0,1.1225864,-1.3323477,-3.1829193)">
    <rect
       style="fill:#00d100;fill-opacity:1;stroke:none;stroke-width:1.22212;stroke-opacity:1"
       id="rect9451"
       width="2.6537979"
       height="4.8098698"
       x="-14.871683"
       y="33.870598"
       transform="matrix(0.72792689,-0.68565476,0.71646333,0.69762475,0,0)" />
    <rect
       style="fill:#00d100;fill-opacity:1;stroke:none;stroke-width:1.38939;stroke-opacity:1"
       id="rect9451-9"
       width="2.5204952"
       height="8.299058"
       x="37.00304"
       y="3.3642206"
       transform="matrix(0.65623321,0.75455813,-0.77585566,0.63091044,0,0)"
       ry="0" />
  </g>
  <g
     id="g1297"
     transform="translate(0.5625,0.125)">
    <g
       id="g10285-8-5"
       transform="matrix(1.0650852,-0.15197312,0.15857168,1.1113304,-7.9842318,10.967549)">
      <rect
         style="fill:#e90000;fill-opacity:1;stroke:none;stroke-width:1.38939;stroke-opacity:1"
         id="rect9451-9-6-6"
         width="2.5204952"
         height="8.299058"
         x="37.33308"
         y="2.9694979"
         transform="matrix(0.65623321,0.75455813,-0.77585566,0.63091044,0,0)"
         ry="0" />
    </g>
    <g
       id="g10285-8-5-8"
       transform="matrix(-1.0650852,-0.15197312,-0.15857168,1.1113304,44.921732,10.967549)">
      <rect
         style="fill:#e90000;fill-opacity:1;stroke:none;stroke-width:1.38939;stroke-opacity:1"
         id="rect9451-9-6-6-1"
         width="2.5204952"
         height="8.299058"
         x="37.33308"
         y="2.9694979"
         transform="matrix(0.65623321,0.75455813,-0.77585566,0.63091044,0,0)"
         ry="0" />
    </g>
  </g>
</svg>
