<?xml version="1.0" ?>
<svg height="20px" version="1.1" viewBox="0 0 24 24" width="24px" xmlns="http://www.w3.org/2000/svg" xmlns:sketch="http://www.bohemiancoding.com/sketch/ns"
    xmlns:xlink="http://www.w3.org/1999/xlink">
    <g fill="none" fill-rule="evenodd" id="miu" stroke="none" stroke-width="1">
        <g id="Artboard-1" transform="translate(-647.000000, -227.000000)">
            <g id="slice" transform="translate(215.000000, 119.000000)" />
            <path d="M650.206336,233 C650.09238,233 650,233.073633 650,233.165891 L650,247.834109 C650,247.925728 650.091899,248 650.206336,248 L664.793664,248 C664.90762,248 665,247.926367 665,247.834109 L665,233.165891 C665,233.074272 664.908101,233 664.793664,233 L650.206336,233 Z M651,234 L651,247 L664,247 L664,234 L651,234 Z M654,232 L655,232 L655,230 L668,230 L668,243 L666,243 L666,244 L669,244 L669,229 L654,229 L654,232 Z"
                fill="#ccc" id="editor-copy-2-duplicate-outline-stroke" />
        </g>
    </g>
</svg>