<svg xmlns="http://www.w3.org/2000/svg" version="1.1" viewBox="0 0 116.5 64.53">  <defs>    <clipPath id="clipPath3089" clipPathUnits="userSpaceOnUse">      <path d="m270,366.9,113.5,0,0,72-113.5,0,0-72z"/>    </clipPath>  </defs>  <g transform="translate(-316.72778,-500.09613)">    <g transform="matrix(1.25,0,0,-1.25,-35.931154,1035.9555)">      <g clip-path="url(#clipPath3089)">        <g transform="translate(301.14951,406.7847)">          <path              d="m0,0c2.21-2.539-0.579-4.83-0.579-4.83s5.609,2.897,3.032,6.521c-2.405,3.385-4.253,5.064,5.738,10.86,0,0-15.68-3.918-8.191-12.55"              fill-rule="nonzero" fill="#f8971d"/>        </g>        <g transform="translate(303.6026,428.6875)">          <path              d="m0,0s4.758-4.758-4.514-12.08c-7.436-5.872-1.696-9.222-0.004-13.05-4.34,3.915-7.525,7.364-5.388,10.58,3.135,4.706,11.83,6.988,9.906,14.55"              fill-rule="nonzero" fill="#f8971d"/>        </g>        <g transform="translate(333.58141,381.57359)">          <path              d="m0,0c0,0.879-0.487,1.319-1.462,1.319h-0.452v-2.666h0.471c0.962,0,1.443,0.449,1.443,1.347m1.088,0.106c0-0.673-0.202-1.2-0.607-1.578-0.461-0.436-1.161-0.655-2.097-0.655h-0.298v-2.289h-1.039v6.494c0.16,0,0.419,0.003,0.779,0.01h0.885c1.584,0,2.377-0.66,2.377-1.982"              fill-rule="nonzero" fill="#58839f"/>        </g>        <g transform="translate(339.4698,380.3428)">          <path              d="m0,0c0,0.924-0.132,1.597-0.395,2.021-0.243,0.39-0.625,0.586-1.144,0.586-0.995,0-1.492-0.817-1.492-2.453,0-0.937,0.131-1.617,0.395-2.041,0.243-0.39,0.625-0.586,1.144-0.586,0.995,0,1.492,0.824,1.492,2.473m1.097,0.182c0-1.167-0.253-2.049-0.761-2.646-0.461-0.546-1.106-0.817-1.933-0.817-0.828,0-1.447,0.24-1.857,0.721-0.449,0.533-0.673,1.37-0.673,2.511,0,1.161,0.253,2.04,0.759,2.637,0.462,0.545,1.107,0.817,1.935,0.817,1.686,0,2.53-1.074,2.53-3.223"              fill-rule="nonzero" fill="#58839f"/>        </g>        <g transform="translate(349.0723,383.6519)">          <path              d="m0,0c-0.493-2.36-1.042-4.525-1.645-6.494h-1.135l-0.982,3.868-0.201,0.971h-0.01l-0.183-0.981-0.913-3.858h-1.147c-0.621,2.014-1.173,4.179-1.654,6.494h1.116c0.147-0.764,0.548-2.492,1.203-5.186h0.009l0.145,0.76,1.039,4.426h0.99l1.251-5.186h0.02c0.507,2.181,0.876,3.91,1.106,5.186h0.991z"              fill-rule="nonzero" fill="#58839f"/>        </g>        <g transform="translate(353.32581,377.1577)">          <path d="m0,0-3.262,0,0,6.494,3.223,0,0-0.807-2.184,0,0-1.973,1.799,0,0-0.78-1.799,0,0-2.117h2.223v-0.817z"                fill-rule="nonzero" fill="#58839f"/>        </g>        <g transform="translate(357.5016,381.8723)">          <path              d="m0,0c0,0.699-0.433,1.048-1.299,1.048h-0.568v-2.164h0.635c0.821,0,1.232,0.372,1.232,1.116m1.433-4.715-1.212,0-1.655,2.838-0.433,0,0-2.838-1.04,0,0,6.495c0.732,0.013,1.332,0.02,1.8,0.02,0.725,0,1.279-0.154,1.664-0.463,0.354-0.296,0.53-0.702,0.53-1.222,0-0.975-0.504-1.568-1.51-1.779l1.856-3.051z"              fill-rule="nonzero" fill="#58839f"/>        </g>        <g transform="translate(363.0822,377.1577)">          <path d="m0,0-3.263,0,0,6.494,3.224,0,0-0.807-2.184,0,0-1.973,1.799,0,0-0.78-1.799,0,0-2.117h2.223v-0.817z"                fill-rule="nonzero" fill="#58839f"/>        </g>        <g transform="translate(367.65199,380.4483)">          <path              d="m0,0c0,1.623-0.587,2.434-1.761,2.434-0.218,0-0.385-0.003-0.5-0.009v-4.917c0.244-0.013,0.426-0.019,0.548-0.019,1.142,0,1.713,0.836,1.713,2.511m1.087,0.125c0-2.296-1.007-3.444-3.021-3.444-0.154,0-0.387,0.005-0.698,0.014-0.311,0.01-0.533,0.014-0.669,0.014v6.495c0.193,0,0.468,0.003,0.828,0.01h0.818c0.956,0,1.668-0.302,2.136-0.905,0.404-0.532,0.606-1.26,0.606-2.184"              fill-rule="nonzero" fill="#58839f"/>        </g>        <g transform="translate(370.8387,400.3007)">          <path d="m0,0,0.527,0,0,2.03,0.694,0,0,0.415-1.941,0,0-0.415h0.72v-2.03z" fill-rule="evenodd" fill="#58839f"/>        </g>        <g transform="translate(370.8387,400.3007)">          <g transform="translate(4.024,0)">            <path                d="m0,0,0.5,0,0,2.445-0.751,0-0.61-1.666-0.664,1.666-0.722,0,0-2.445,0.471,0,0,1.861,0.027,0l0.695-1.861h0.36l0.694,1.861v-1.861z"                fill-rule="evenodd" fill="#58839f"/>          </g>        </g>        <g transform="translate(327.138,390.1261)">          <path              d="m0,0c0-3.211-1.084-5.626-3.25-7.242l-1.568,1.329c0.688,0.809,1.153,1.774,1.389,2.899,0.158,0.768,0.236,1.83,0.236,3.19v17.7h3.193v-17.88z"              fill-rule="nonzero" fill="#58839f"/>        </g>        <g transform="translate(338.4584,391.4547)">          <path              d="m0,0,0,3.488-1.272,0c-2.856,0-4.284-0.886-4.284-2.66,0-1.536,0.758-2.306,2.275-2.306,1.044,0,2.137,0.493,3.281,1.478m3.014-3.399-2.364,0-0.237,1.596c-1.458-1.261-2.975-1.891-4.552-1.891-2.953,0-4.431,1.359-4.431,4.079,0,1.556,0.599,2.768,1.802,3.635,1.301,0.928,3.203,1.389,5.704,1.389h1.064v1.331c0,1.754-1.016,2.631-3.046,2.631-1.32,0-2.757-0.286-4.314-0.857l-0.442,1.861c1.831,0.809,3.695,1.213,5.585,1.213,3.488,0,5.231-1.488,5.231-4.463v-10.52z"              fill-rule="nonzero" fill="#58839f"/>        </g>        <g transform="translate(356.2531,402.77521)">          <path              d="m0,0c-0.965-5.438-2.484-10.34-4.553-14.72h-3.753l-4.524,14.72h3.281l2.808-9.043,0.62-2.719c1.46,4.018,2.434,7.939,2.927,11.76h3.194z"              fill-rule="nonzero" fill="#58839f"/>        </g>        <g transform="translate(365.7092,391.4547)">          <path              d="m0,0,0,3.488-1.271,0c-2.858,0-4.286-0.886-4.286-2.66,0-1.536,0.759-2.306,2.276-2.306,1.045,0,2.138,0.493,3.281,1.478m3.016-3.399-2.366,0-0.235,1.596c-1.46-1.261-2.977-1.891-4.552-1.891-2.956,0-4.434,1.359-4.434,4.079,0,1.556,0.6,2.768,1.803,3.635,1.3,0.928,3.202,1.389,5.705,1.389h1.063v1.331c0,1.754-1.014,2.631-3.043,2.631-1.321,0-2.758-0.286-4.316-0.857l-0.444,1.861c1.833,0.809,3.696,1.213,5.587,1.213,3.488,0,5.232-1.488,5.232-4.463v-10.52z"              fill-rule="nonzero" fill="#58839f"/>        </g>        <g transform="translate(293.00729,393.26331)">          <path              d="m0,0s-1.75-1.015,1.246-1.361c3.63-0.414,5.488-0.354,9.485,0.402,0,0,1.054-0.659,2.521-1.227-8.967-3.847-20.29,0.22-13.25,2.186"              fill-rule="nonzero" fill="#58839f"/>        </g>        <g transform="translate(291.9127,398.27859)">          <path              d="m0,0s-1.965-1.452,1.035-1.762c3.877-0.398,6.942-0.431,12.24,0.588,0,0,0.732-0.743,1.885-1.149-10.84-3.172-22.92-0.251-15.16,2.323"              fill-rule="nonzero" fill="#58839f"/>        </g>        <g transform="translate(313.00951,389.5542)">          <path              d="m0,0s1.295-1.065-1.429-1.893c-5.174-1.565-21.54-2.04-26.09-0.063-1.636,0.713,1.43,1.697,2.393,1.905,1.006,0.216,1.581,0.179,1.581,0.179-1.818,1.281-11.75-2.515-5.045-3.6,18.3-2.965,33.34,1.333,28.6,3.472"              fill-rule="nonzero" fill="#58839f"/>        </g>        <g transform="translate(293.8486,403.4742)">          <path              d="m0,0s-8.325-1.975-2.947-2.695c2.269-0.303,6.796-0.232,11.01,0.12,3.446,0.29,6.905,0.908,6.905,0.908s-1.216-0.52-2.095-1.119c-8.459-2.225-24.79-1.19-20.09,1.083,3.975,1.921,7.207,1.703,7.207,1.703"              fill-rule="nonzero" fill="#58839f"/>        </g>        <g transform="translate(308.78371,395.129)">          <path              d="M0,0c8.593,4.465,4.621,8.759,1.846,8.178-0.678-0.142-0.982-0.264-0.982-0.264s0.253,0.395,0.734,0.567c5.487,1.928,9.707-5.688-1.771-8.706,0,0,0.132,0.118,0.173,0.225"              fill-rule="nonzero" fill="#58839f"/>        </g>        <g transform="translate(294.6938,383.0253)">          <path              d="m0,0c8.249-0.526,20.92,0.295,21.22,4.199,0,0-0.577-1.478-6.816-2.656-7.041-1.325-15.73-1.169-20.88-0.319,0,0,1.054-0.874,6.475-1.224"              fill-rule="nonzero" fill="#58839f"/>        </g>      </g>    </g>  </g></svg>